<svg width="264" height="264" viewBox="0 0 264 264" fill="none" xmlns="http://www.w3.org/2000/svg">
<path d="M87.9279 60.1603L87.5952 59.7485C89.915 57.8666 92.3294 56.1043 94.8288 54.4685L95.1192 54.912C92.6339 56.5373 90.2336 58.289 87.9279 60.1603Z" fill="#263238"/>
<path d="M84.0313 63.4921L83.6722 63.1013C84.3798 62.4625 85.1084 61.8236 85.8318 61.2058L86.175 61.6124C85.4516 62.2249 84.7335 62.8585 84.0313 63.4921Z" fill="#263238"/>
<path d="M142.509 127.93C167.786 105.786 175.63 73.3985 160.029 55.5902C144.427 37.7818 111.289 41.2964 86.0124 63.4403C60.7354 85.5842 52.8915 117.972 68.4926 135.78C84.0936 153.589 117.232 150.074 142.509 127.93Z" fill="#263238"/>
<path d="M125.215 54.854C102.358 56.7073 78.9255 76.502 72.8746 99.0265L155.649 92.3262C161.7 69.7806 148.072 53.006 125.215 54.854Z" fill="#5FCDAA"/>
<path opacity="0.7" d="M72.864 99.0264L114.254 95.6736L92.7432 69.168C83.2709 77.1724 75.9 87.7536 72.864 99.0264Z" fill="white"/>
<path opacity="0.4" d="M125.215 54.8539C113.789 55.7832 102.216 61.1899 92.7433 69.1785L114.265 95.6736L125.215 54.8539Z" fill="white"/>
<path opacity="0.1" d="M125.215 54.854L114.265 95.6736L151.272 64.4424C145.765 57.6629 136.646 53.93 125.215 54.854Z" fill="white"/>
<path d="M124.256 107.096C133.203 99.2576 135.981 87.7951 130.46 81.4934C124.94 75.1917 113.212 76.4371 104.265 84.2751C95.3176 92.1131 92.54 103.576 98.0606 109.877C103.581 116.179 115.31 114.934 124.256 107.096Z" fill="white"/>
<path d="M120.095 102.346C125.316 97.7723 126.935 91.083 123.713 87.4046C120.49 83.7263 113.646 84.4517 108.426 89.025C103.205 93.5983 101.586 100.288 104.808 103.966C108.031 107.644 114.875 106.919 120.095 102.346Z" fill="#263238"/>
<path d="M145.242 73.8408C135.395 77.5593 126.058 82.509 117.454 88.572L121.345 95.5416C130.144 89.282 138.166 81.9972 145.242 73.8408Z" fill="#263238"/>
<path d="M77.616 114.608C77.4931 114.614 77.3705 114.592 77.2576 114.543C77.1448 114.494 77.0449 114.419 76.9656 114.325C76.8863 114.231 76.8299 114.12 76.8008 114C76.7716 113.881 76.7705 113.756 76.7976 113.636C76.8589 113.339 77.0123 113.069 77.2361 112.864C77.4598 112.66 77.7424 112.531 78.0437 112.496L123.552 108.89C123.681 108.87 123.812 108.882 123.935 108.925C124.058 108.968 124.168 109.04 124.257 109.135C124.345 109.23 124.409 109.346 124.443 109.471C124.476 109.597 124.479 109.729 124.45 109.856C124.39 110.152 124.237 110.422 124.014 110.626C123.791 110.83 123.509 110.958 123.209 110.991L77.7374 114.602L77.616 114.608Z" fill="#5FCDAA"/>
<path d="M116.979 118.937C116.855 118.945 116.732 118.923 116.619 118.875C116.505 118.826 116.405 118.751 116.325 118.657C116.246 118.563 116.19 118.451 116.161 118.331C116.132 118.211 116.132 118.086 116.16 117.966C116.22 117.669 116.373 117.398 116.597 117.194C116.821 116.99 117.105 116.863 117.406 116.831L132.19 115.653C132.319 115.633 132.451 115.644 132.575 115.686C132.698 115.729 132.81 115.801 132.899 115.896C132.988 115.992 133.052 116.107 133.086 116.234C133.12 116.36 133.122 116.492 133.093 116.619C133.033 116.917 132.879 117.187 132.655 117.392C132.432 117.597 132.149 117.726 131.847 117.76L117.063 118.932L116.979 118.937Z" fill="#5FCDAA"/>
<path d="M41.7913 137.85C41.6684 137.857 41.5458 137.834 41.4329 137.785C41.3201 137.736 41.2201 137.662 41.1409 137.568C41.0616 137.474 41.0052 137.362 40.9761 137.243C40.9469 137.123 40.9458 136.999 40.9729 136.879C41.0356 136.579 41.1923 136.308 41.4203 136.103C41.6482 135.899 41.9355 135.773 42.2401 135.744L57.0241 134.566C57.1528 134.547 57.2842 134.559 57.4072 134.602C57.5301 134.645 57.6407 134.717 57.7296 134.812C57.8184 134.907 57.8828 135.022 57.9172 135.148C57.9516 135.273 57.9549 135.405 57.927 135.532C57.8667 135.829 57.7143 136.099 57.4914 136.304C57.2686 136.509 56.9868 136.638 56.6862 136.673L41.9022 137.845L41.7913 137.85Z" fill="#5FCDAA"/>
<path d="M54.9596 129.207C54.8369 129.213 54.7143 129.191 54.6016 129.142C54.4889 129.093 54.3891 129.019 54.3103 128.924C54.2314 128.83 54.1755 128.719 54.1471 128.599C54.1187 128.48 54.1185 128.355 54.1465 128.235C54.207 127.939 54.3596 127.67 54.5825 127.466C54.8054 127.262 55.0871 127.134 55.3873 127.1L99.7393 123.578C99.868 123.559 99.9995 123.571 100.122 123.614C100.245 123.657 100.356 123.729 100.445 123.824C100.534 123.919 100.598 124.035 100.632 124.16C100.667 124.286 100.67 124.418 100.642 124.545C100.581 124.842 100.427 125.112 100.204 125.317C99.98 125.521 99.6974 125.65 99.3961 125.685L55.0441 129.202L54.9596 129.207Z" fill="#5FCDAA"/>
<path d="M150.158 176.621L152.038 180.418L161.336 177.075L159.456 173.279L150.158 176.621Z" fill="#FF8B7B"/>
<path d="M104.951 207.842L107.775 211.005L114.956 202.847L111.477 200.429L104.951 207.842Z" fill="#FF8B7B"/>
<path d="M108.419 210.672L106.498 205.872C106.467 205.796 106.411 205.732 106.339 205.693C106.266 205.653 106.182 205.64 106.102 205.656L102.347 206.448C102.255 206.468 102.168 206.509 102.093 206.567C102.018 206.624 101.957 206.698 101.913 206.782C101.87 206.866 101.846 206.959 101.842 207.054C101.839 207.148 101.856 207.243 101.893 207.33C102.538 208.861 103.076 209.97 103.852 211.892C104.333 213.09 105.653 216.749 106.318 218.402C106.983 220.055 108.668 219.548 108.546 218.803C107.981 215.482 107.965 212.795 108.435 211.438C108.526 211.189 108.52 210.916 108.419 210.672Z" fill="#263238"/>
<path d="M152.465 180.175L150.411 176.025C150.374 175.95 150.312 175.891 150.236 175.855C150.161 175.82 150.076 175.811 149.994 175.829L146.245 176.753C146.154 176.774 146.068 176.816 145.996 176.875C145.923 176.934 145.864 177.009 145.825 177.094C145.786 177.179 145.767 177.272 145.769 177.366C145.771 177.46 145.795 177.552 145.839 177.635C146.604 179.119 147.761 181.236 148.695 183.116C149.783 185.317 149.931 185.386 151.209 187.963C151.98 189.52 153.769 189.177 153.59 188.454C152.766 185.159 152.307 184.589 152.624 181.236C152.67 180.874 152.615 180.507 152.465 180.175Z" fill="#263238"/>
<path d="M189.024 108.367C188.829 109.74 188.617 111.218 188.454 112.649C188.29 114.08 188.126 115.537 188.005 116.978C187.725 119.796 187.64 122.629 187.751 125.458C187.751 125.801 187.783 126.144 187.825 126.467L187.92 127.406C187.919 127.685 188.006 127.957 188.168 128.183C188.33 128.41 188.559 128.58 188.823 128.668C189.302 128.888 189.808 129.04 190.328 129.122C191.628 129.315 192.946 129.365 194.256 129.27C194.948 129.223 195.656 129.17 196.368 129.085C197.081 129.001 197.805 128.89 198.48 128.79L199.505 131.805C198.775 132.148 198.028 132.453 197.266 132.718C196.514 132.998 195.747 133.238 194.969 133.436C194.172 133.647 193.363 133.811 192.546 133.927C191.683 134.059 190.81 134.116 189.937 134.096C188.957 134.084 187.984 133.937 187.044 133.658C185.899 133.311 184.857 132.685 184.013 131.836C183.134 130.916 182.528 129.77 182.26 128.526C182.223 128.362 182.207 128.272 182.192 128.167L182.139 127.86L182.028 127.237C181.949 126.826 181.896 126.419 181.848 126.012C181.505 122.856 181.438 119.676 181.648 116.508C181.748 114.956 181.859 113.414 182.049 111.883C182.239 110.352 182.424 108.847 182.72 107.258L189.024 108.367Z" fill="#FF8B7B"/>
<path d="M182.26 104.544C179.483 107.495 180.602 114.946 180.602 114.946L188.406 116.16C188.406 116.16 190.217 111.936 189.536 107.58C188.702 102.289 185.296 101.297 182.26 104.544Z" fill="#5FCDAA"/>
<path opacity="0.2" d="M184.8 107.812C183.512 106.154 182.16 105.563 181.442 105.7C179.715 109.085 180.592 114.925 180.592 114.925L186.12 115.822C186.754 114.106 186.833 110.405 184.8 107.812Z" fill="black"/>
<path d="M197.44 129.249L201.965 126.282L202.968 130.875C202.968 130.875 200.154 133.727 197.81 131.715L197.44 129.249Z" fill="#FF8B7B"/>
<path d="M204.748 125.289L205.271 129.26L202.968 130.875L201.96 126.282L204.748 125.289Z" fill="#FF8B7B"/>
<path opacity="0.2" d="M161.33 177.081L156.541 178.802L154.662 175L159.451 173.279L161.33 177.081Z" fill="black"/>
<path opacity="0.2" d="M111.477 200.429L114.956 202.847L111.588 206.67L108.108 204.246L111.477 200.429Z" fill="black"/>
<path d="M166.183 94.3589C162.972 110.785 154.424 125.606 153.231 128.88C156.293 130.163 167.851 134.978 174.15 137.602C185.898 120.12 187.699 107.469 187.968 104.407C187.987 104.188 187.948 103.968 187.855 103.769C187.763 103.57 187.62 103.398 187.44 103.272C186.938 102.907 186.136 102.337 185.159 101.688C184.631 101.35 184.066 100.996 183.459 100.632C183.126 100.436 182.783 100.246 182.435 100.061C179.542 98.66 176.572 97.426 173.538 96.3653C172.967 96.1594 172.381 95.9587 171.806 95.7792C171.23 95.5997 170.75 95.4571 170.248 95.3198C167.999 94.7179 166.183 94.3589 166.183 94.3589Z" fill="#5FCDAA"/>
<path d="M178.76 117.781L179.916 118.077C179.153 118.814 178.224 119.358 177.207 119.661C176.045 120.009 174.81 120.027 173.638 119.713C172.601 119.501 171.652 118.983 170.914 118.225C170.602 117.874 170.366 117.464 170.219 117.019C170.072 116.574 170.017 116.104 170.058 115.637C170.135 114.528 170.449 113.448 170.977 112.469C171.591 111.274 172.417 110.2 173.416 109.301C174.316 108.457 175.401 107.835 176.584 107.485C177.648 107.18 178.774 107.162 179.847 107.432C180.665 107.608 181.405 108.041 181.959 108.668C182.472 109.287 182.732 110.077 182.688 110.88C182.648 111.804 182.397 112.707 181.954 113.52C181.396 114.604 180.587 115.538 179.594 116.245C178.311 117.169 177.112 117.485 176.004 117.205C175.887 117.189 175.775 117.149 175.675 117.088C175.574 117.027 175.486 116.947 175.417 116.852C175.336 116.654 175.336 116.432 175.417 116.234C174.87 116.585 174.208 116.712 173.569 116.588C173.295 116.533 173.042 116.398 172.843 116.201C172.644 116.004 172.508 115.753 172.45 115.479C172.326 114.757 172.471 114.015 172.857 113.393C173.364 112.398 174.085 111.527 174.969 110.843C176.06 109.988 177.058 109.673 177.962 109.898C178.248 109.946 178.506 110.097 178.687 110.323C178.869 110.549 178.96 110.834 178.944 111.123L179.441 110.452L180.872 110.817L177.704 115.173C177.572 115.341 177.45 115.517 177.339 115.701C177.293 115.779 177.271 115.869 177.276 115.959C177.281 115.987 177.295 116.013 177.314 116.034C177.334 116.054 177.359 116.069 177.387 116.076C177.687 116.095 177.987 116.025 178.248 115.875C178.836 115.623 179.373 115.265 179.832 114.819C180.322 114.362 180.732 113.827 181.046 113.235C181.3 112.808 181.465 112.333 181.531 111.841C181.597 111.348 181.563 110.847 181.431 110.368C181.146 109.502 180.428 108.925 179.277 108.636C178.339 108.388 177.35 108.414 176.426 108.71C175.461 109.031 174.584 109.574 173.865 110.294C173.102 111.029 172.464 111.883 171.975 112.823C171.541 113.619 171.307 114.509 171.294 115.416C171.282 115.788 171.347 116.159 171.483 116.505C171.619 116.852 171.824 117.167 172.086 117.433C172.679 117.983 173.408 118.365 174.198 118.541C174.996 118.755 175.83 118.802 176.648 118.679C177.41 118.541 178.131 118.234 178.76 117.781ZM174.24 113.689C174.004 114.064 173.888 114.503 173.907 114.946C173.921 115.079 173.976 115.205 174.065 115.306C174.154 115.406 174.273 115.476 174.404 115.505C174.626 115.557 174.858 115.546 175.074 115.474C175.292 115.403 175.498 115.302 175.687 115.173C176.094 114.89 176.458 114.55 176.769 114.164C177.127 113.756 177.437 113.308 177.693 112.828C177.909 112.478 178.007 112.067 177.973 111.656C177.957 111.518 177.897 111.388 177.802 111.285C177.707 111.183 177.582 111.113 177.445 111.086C177.071 111.017 176.685 111.091 176.363 111.292C175.893 111.562 175.481 111.921 175.148 112.348C174.799 112.762 174.495 113.211 174.24 113.689Z" fill="white"/>
<path d="M178.617 86.8296C177.989 89.9237 176.363 95.4043 173.564 96.4762C174.472 98.6726 175.761 101.307 179.113 102.844C182.466 104.38 182.841 101.788 182.456 100.204C179.583 98.0918 180.655 95.7792 182.134 93.7886L178.617 86.8296Z" fill="#FF8B7B"/>
<path opacity="0.2" d="M180.048 89.6597L182.128 93.7622C181.775 94.2225 181.464 94.7138 181.199 95.2301C180.053 94.5437 178.934 92.5056 179.335 91.175C179.479 90.631 179.721 90.1176 180.048 89.6597Z" fill="black"/>
<path d="M187.06 86.9458C190.37 87.1887 193.301 78.9308 188.47 77.9698C185.212 77.3204 185.244 79.2687 184.9 81.4018C184.557 83.535 184.964 86.7927 187.06 86.9458Z" fill="#263238"/>
<path d="M178.992 82.764C178.142 86.8824 177.434 89.2478 178.913 91.8878C181.141 95.8531 186.643 95.3568 188.712 91.5763C190.571 88.1707 191.653 82.009 188.126 79.3162C187.351 78.7194 186.437 78.3307 185.469 78.1868C184.502 78.0429 183.513 78.1487 182.598 78.4942C181.683 78.8396 180.871 79.4132 180.24 80.1605C179.609 80.9078 179.179 81.804 178.992 82.764Z" fill="#FF8B7B"/>
<path d="M178.29 85.7103C181.6 85.9532 183.818 78.4028 178.987 77.4365C175.729 76.7871 175.454 78.6932 175.507 80.7312C175.56 82.896 176.188 85.536 178.29 85.7103Z" fill="#263238"/>
<path d="M180.961 79.934C183.195 81.0164 193.961 83.3343 193.343 78.7037C192.725 74.0732 186.975 71.9242 186.975 71.9242C186.975 71.9242 190.323 75.5938 187.561 74.712C184.8 73.8303 184.008 73.1861 180.697 72.6C180.697 72.6 183.95 75.2981 180.169 74.5378C177.976 74.0649 175.686 74.4303 173.749 75.5621C174.709 76.208 175.476 77.1029 175.967 78.1511C176.458 79.1993 176.655 80.3613 176.537 81.5127C176.278 85.5836 180.961 79.934 180.961 79.934Z" fill="#263238"/>
<path d="M176.352 85.9056C176.497 86.8637 177.013 87.7264 177.788 88.308C178.802 89.0525 179.726 88.1971 179.795 86.9616C179.853 85.8475 179.399 84.1157 178.211 83.8675C177.023 83.6194 176.194 84.7123 176.352 85.9056Z" fill="#FF8B7B"/>
<path d="M160.47 131.9L156.066 146.082L178.733 160.338C174.821 166.864 154.942 173.358 154.942 173.358L158.11 179.789C158.11 179.789 185.793 177.677 191.405 165.438C196.807 153.685 174.14 137.602 174.14 137.602L160.47 131.9Z" fill="#263238"/>
<path opacity="0.2" d="M163.411 150.702L159.456 148.225L164.324 141.15C164.324 141.15 164.461 146.821 163.411 150.702Z" fill="black"/>
<path opacity="0.2" d="M163.411 150.702L159.456 148.225L164.324 141.15C164.324 141.15 164.461 146.821 163.411 150.702Z" fill="black"/>
<path d="M169.24 135.559C169.24 135.559 150.96 165.961 143.415 175.824C135.152 186.627 113.758 206.976 113.758 206.976L107.385 202.541C107.385 202.541 125.865 182.171 132.829 170.898C140.775 158.057 153.231 128.869 153.231 128.869L169.24 135.559Z" fill="#263238"/>
<path d="M114.423 207.652L106.92 202.435L108.478 200.191L116.968 205.878L114.423 207.652Z" fill="#5FCDAA"/>
<path d="M158.374 180.671L154.577 173.01L157.054 171.785L161.425 180.286L158.374 180.671Z" fill="#5FCDAA"/>
<path d="M184.837 85.5677C184.747 85.895 184.837 86.2118 185.064 86.2699C185.291 86.328 185.529 86.1115 185.618 85.7789C185.708 85.4462 185.618 85.1347 185.386 85.0766C185.154 85.0185 184.927 85.2403 184.837 85.5677Z" fill="#263238"/>
<path d="M188.565 86.592C188.475 86.9247 188.565 87.2362 188.792 87.2943C189.019 87.3524 189.256 87.1359 189.346 86.8032C189.436 86.4706 189.346 86.1591 189.119 86.101C188.892 86.0429 188.654 86.2541 188.565 86.592Z" fill="#263238"/>
<path d="M187.334 86.4231C187.454 87.5391 187.726 88.6334 188.142 89.6756C187.872 89.7747 187.584 89.8138 187.298 89.79C187.012 89.7663 186.734 89.6804 186.484 89.5383L187.334 86.4231Z" fill="#FF5652"/>
<path d="M184.858 90.0452C184.5 89.9023 184.176 89.6882 183.903 89.4159C183.631 89.1436 183.417 88.8188 183.274 88.4612C183.267 88.4353 183.271 88.4078 183.283 88.3843C183.296 88.3607 183.317 88.3429 183.343 88.3344C183.368 88.3274 183.395 88.33 183.418 88.3417C183.442 88.3534 183.46 88.3734 183.469 88.3978C183.631 88.7884 183.883 89.1353 184.204 89.4105C184.525 89.6857 184.907 89.8814 185.317 89.9818C185.331 89.9842 185.343 89.9894 185.354 89.997C185.365 90.0046 185.375 90.0144 185.382 90.0259C185.389 90.0374 185.393 90.0502 185.395 90.0635C185.396 90.0769 185.395 90.0904 185.391 90.1032C185.388 90.1162 185.382 90.1283 185.373 90.1388C185.365 90.1493 185.354 90.158 185.342 90.1644C185.331 90.1708 185.318 90.1748 185.304 90.176C185.291 90.1773 185.277 90.1759 185.265 90.1719C185.126 90.1394 184.99 90.0971 184.858 90.0452Z" fill="#263238"/>
<path d="M184.013 84.0524C183.983 84.0373 183.955 84.0157 183.934 83.989C183.918 83.9684 183.905 83.9447 183.898 83.9193C183.891 83.8939 183.889 83.8673 183.893 83.8412C183.896 83.815 183.905 83.7899 183.918 83.7672C183.932 83.7445 183.95 83.7248 183.971 83.7092C184.219 83.5081 184.511 83.3692 184.823 83.304C185.135 83.2388 185.459 83.2492 185.766 83.3343C185.816 83.3533 185.856 83.3909 185.879 83.4391C185.902 83.4874 185.905 83.5426 185.888 83.593C185.87 83.6424 185.833 83.6828 185.786 83.7055C185.738 83.7282 185.684 83.7314 185.634 83.7145C185.39 83.6492 185.133 83.6434 184.886 83.6976C184.639 83.7518 184.409 83.8644 184.214 84.026C184.185 84.0468 184.152 84.0601 184.117 84.0648C184.082 84.0694 184.046 84.0651 184.013 84.0524Z" fill="#263238"/>
<path d="M190.518 85.7367C190.488 85.7238 190.462 85.7035 190.441 85.6777C190.421 85.6518 190.407 85.6213 190.402 85.5888C190.363 85.3395 190.265 85.1029 190.117 84.8991C189.968 84.6952 189.772 84.5298 189.547 84.4167C189.52 84.4081 189.496 84.3942 189.475 84.3758C189.455 84.3574 189.438 84.335 189.427 84.3098C189.415 84.2847 189.409 84.2575 189.408 84.2298C189.408 84.2021 189.413 84.1747 189.423 84.1491C189.434 84.1236 189.45 84.1005 189.47 84.0813C189.49 84.0621 189.513 84.0473 189.539 84.0377C189.565 84.0281 189.593 84.024 189.621 84.0256C189.648 84.0272 189.675 84.0345 189.7 84.0471C189.986 84.1861 190.235 84.3921 190.426 84.6476C190.616 84.903 190.742 85.2005 190.793 85.5149C190.798 85.5406 190.798 85.5671 190.793 85.5929C190.788 85.6186 190.778 85.643 190.763 85.6647C190.748 85.6864 190.729 85.7049 190.707 85.7191C190.685 85.7332 190.66 85.7428 190.634 85.7472C190.596 85.7572 190.555 85.7534 190.518 85.7367Z" fill="#263238"/>
<path d="M108.266 212.293C108.133 211.941 108.041 211.574 107.992 211.2C107.989 211.18 107.991 211.159 108 211.14C108.008 211.121 108.022 211.105 108.039 211.094C108.055 211.083 108.073 211.077 108.092 211.077C108.111 211.077 108.13 211.083 108.145 211.094C108.293 211.195 109.565 212.119 109.523 212.652C109.517 212.712 109.496 212.768 109.462 212.818C109.428 212.867 109.381 212.906 109.328 212.932C109.241 212.979 109.144 213.004 109.045 213.004C108.946 213.004 108.849 212.979 108.763 212.932C108.53 212.781 108.355 212.556 108.266 212.293ZM108.24 211.411C108.372 212.14 108.604 212.641 108.868 212.779C108.928 212.808 108.995 212.821 109.062 212.817C109.129 212.812 109.193 212.79 109.248 212.752C109.322 212.721 109.333 212.678 109.333 212.647C109.349 212.372 108.726 211.797 108.24 211.411Z" fill="#5FCDAA"/>
<path d="M107.997 211.2C107.992 211.187 107.99 211.173 107.99 211.159C107.991 211.145 107.994 211.131 108 211.118C108.006 211.105 108.014 211.094 108.025 211.084C108.035 211.075 108.047 211.067 108.06 211.063C108.108 211.063 109.259 210.64 109.813 210.931C109.881 210.965 109.941 211.013 109.988 211.072C110.035 211.132 110.07 211.2 110.088 211.274C110.116 211.346 110.12 211.425 110.098 211.498C110.076 211.572 110.029 211.636 109.967 211.681C109.571 211.955 108.383 211.549 108.023 211.242C108.012 211.23 108.003 211.216 107.997 211.2ZM109.882 211.29C109.85 211.214 109.792 211.153 109.718 211.116C109.255 210.996 108.766 211.024 108.319 211.195C108.784 211.464 109.623 211.675 109.861 211.512C109.861 211.512 109.93 211.464 109.898 211.337L109.882 211.29Z" fill="#5FCDAA"/>
<path d="M152.127 180.808C152.124 180.79 152.127 180.771 152.134 180.755C152.142 180.738 152.154 180.723 152.17 180.713C152.187 180.702 152.207 180.696 152.228 180.696C152.248 180.696 152.269 180.702 152.286 180.713C152.46 180.845 153.986 181.986 153.96 182.577C153.957 182.632 153.941 182.684 153.912 182.731C153.884 182.777 153.843 182.815 153.796 182.841C153.72 182.895 153.631 182.928 153.538 182.936C153.446 182.944 153.352 182.928 153.268 182.889C152.692 182.656 152.302 181.495 152.122 180.824L152.127 180.808ZM153.759 182.524C153.717 182.192 152.988 181.521 152.402 181.057C152.682 181.965 153.025 182.572 153.347 182.704C153.402 182.727 153.463 182.737 153.523 182.731C153.583 182.726 153.64 182.705 153.69 182.672C153.711 182.664 153.729 182.649 153.741 182.63C153.753 182.611 153.759 182.589 153.759 182.567V182.524Z" fill="#5FCDAA"/>
<path d="M166.346 101.545L164.678 100.431C164.102 100.056 163.516 99.6918 162.93 99.3274C161.753 98.6041 160.559 97.9177 159.356 97.2577C158.152 96.5977 156.932 95.9958 155.702 95.4572C155.089 95.1774 154.472 94.9292 153.854 94.6916L152.93 94.3642L152.698 94.285L152.581 94.2428C152.581 94.2428 152.544 94.2428 152.497 94.2058C152.054 94.1682 151.607 94.1949 151.172 94.285C150.564 94.3966 149.965 94.5465 149.376 94.7338C148.08 95.1467 146.806 95.626 145.559 96.17C142.998 97.2735 140.39 98.5302 137.855 99.8132L136.066 97.1732C138.356 95.2229 140.798 93.4574 143.368 91.8932C144.699 91.0831 146.079 90.3582 147.502 89.7231C148.274 89.3887 149.065 89.103 149.873 88.8678C150.844 88.5699 151.856 88.4291 152.872 88.4506C153.205 88.4679 153.537 88.5085 153.864 88.5721L154.113 88.6302L154.26 88.6671L154.551 88.741L155.712 89.042C156.473 89.269 157.238 89.4961 157.967 89.7759C159.431 90.2989 160.865 90.9053 162.26 91.5922C163.648 92.2575 164.995 92.9967 166.309 93.7782C166.959 94.1794 167.608 94.586 168.247 95.0084C168.886 95.4308 169.499 95.8532 170.185 96.3654L166.346 101.545Z" fill="#FF8B7B"/>
<path d="M172.656 97.0623C171.721 94.7496 162.888 91.5869 162.888 91.5869L160.031 99.0423C160.031 99.0423 163.12 101.086 165.681 102.617C170.544 105.547 174.483 101.614 172.656 97.0623Z" fill="#5FCDAA"/>
<path d="M138.706 98.6991L136.916 102.58L134.186 99.0423C134.186 99.0423 136.245 95.5786 137.713 96.9303L138.706 98.6991Z" fill="#FF8B7B"/>
<path d="M133.14 103.8L131.757 100.695L134.186 99.0422L136.916 102.58L133.14 103.8Z" fill="#FF8B7B"/>
</svg>
