<svg width="202" height="202" viewBox="0 0 202 202" fill="none" xmlns="http://www.w3.org/2000/svg">
<path d="M76.5378 164.743H79.6971L80.3435 157.427H77.1842L76.5378 164.743Z" fill="#FFB573"/>
<path d="M80.2102 164.375H76.3561C76.2922 164.377 76.2306 164.399 76.1803 164.438C76.13 164.477 76.0939 164.532 76.0773 164.594L75.3541 167.401C75.3358 167.468 75.3334 167.539 75.3471 167.607C75.3608 167.675 75.3903 167.738 75.4331 167.793C75.4759 167.848 75.5309 167.891 75.5936 167.921C75.6564 167.95 75.7252 167.965 75.7945 167.963C77.0348 167.943 77.9438 167.87 79.5032 167.87C80.4647 167.87 83.3533 167.967 84.6825 167.967C86.0117 167.967 86.2258 166.658 85.6885 166.537C83.2645 166.008 81.4667 165.272 80.7112 164.569C80.5746 164.444 80.3957 164.375 80.2102 164.375Z" fill="#263238"/>
<path opacity="0.2" d="M77.1842 157.431H80.3435L80.0082 161.2H76.8489L77.1842 157.431Z" fill="white"/>
<path d="M83.0946 91.9949C83.0946 91.9949 85.1146 116.514 84.549 125.769C83.9107 135.902 81.4867 160.469 81.4867 160.469H75.7014C75.7014 160.469 76.2064 137.59 75.9115 127.745C75.5802 116.51 72.1907 92.1484 72.1907 92.1484L83.0946 91.9949Z" fill="#263238"/>
<path d="M81.9878 160.594H75.1724L75.2451 158.558L82.4726 158.425L81.9878 160.594Z" fill="#5FCDAA"/>
<path d="M81.2364 164.929C81.4533 164.945 81.6693 164.888 81.8504 164.767C81.9102 164.72 81.9568 164.658 81.9857 164.587C82.0147 164.516 82.0252 164.439 82.0161 164.363C82.0193 164.321 82.0099 164.278 81.9891 164.241C81.9682 164.203 81.9369 164.173 81.8989 164.153C81.5515 163.972 80.5132 164.598 80.396 164.67C80.3831 164.678 80.3727 164.69 80.3663 164.703C80.3598 164.717 80.3575 164.732 80.3597 164.747C80.3615 164.761 80.3675 164.775 80.3768 164.785C80.3862 164.796 80.3985 164.804 80.4122 164.808C80.6815 164.879 80.9579 164.92 81.2364 164.929ZM81.7292 164.275C81.7626 164.275 81.7956 164.281 81.8262 164.295C81.8262 164.295 81.8666 164.323 81.8666 164.384C81.8712 164.434 81.8638 164.485 81.8448 164.532C81.8258 164.579 81.7959 164.621 81.7575 164.654C81.4041 164.816 81.0023 164.836 80.6344 164.711C80.9686 164.498 81.34 164.35 81.7292 164.275Z" fill="#5FCDAA"/>
<path d="M80.4282 164.832C80.44 164.836 80.4527 164.836 80.4646 164.832C80.7999 164.654 81.4544 163.963 81.4018 163.62C81.3932 163.565 81.3653 163.515 81.3231 163.479C81.2809 163.442 81.2272 163.422 81.1716 163.422C81.1139 163.416 81.0557 163.421 81.0002 163.438C80.9447 163.455 80.8931 163.482 80.8484 163.519C80.4726 163.818 80.3636 164.731 80.3595 164.767C80.3571 164.78 80.3586 164.794 80.3636 164.806C80.3686 164.818 80.377 164.829 80.3878 164.836C80.4014 164.838 80.4153 164.837 80.4282 164.832ZM81.115 163.551H81.1473C81.2443 163.551 81.2524 163.608 81.2524 163.628C81.2847 163.834 80.8484 164.359 80.5292 164.606C80.5647 164.244 80.7051 163.9 80.9332 163.616C80.982 163.568 81.0466 163.539 81.115 163.535V163.551Z" fill="#5FCDAA"/>
<path d="M52.8069 159.196L55.7601 160.21L59.0972 153.536L56.1439 152.522L52.8069 159.196Z" fill="#FFB573"/>
<path d="M56.257 160.336L53.1826 158.126C53.1311 158.09 53.069 158.073 53.0066 158.077C52.9441 158.082 52.8851 158.107 52.8392 158.15L50.6454 160.089C50.5924 160.135 50.5503 160.192 50.5223 160.256C50.4944 160.32 50.4813 160.39 50.484 160.46C50.4867 160.529 50.5052 160.598 50.538 160.66C50.5709 160.721 50.6173 160.775 50.6737 160.816C51.6756 161.507 52.4432 161.968 53.6876 162.865C54.4552 163.414 56.7054 165.159 57.7639 165.919C58.8224 166.678 59.7556 165.709 59.3799 165.297C57.7639 163.467 56.7378 161.81 56.5519 160.792C56.5167 160.607 56.4109 160.444 56.257 160.336Z" fill="#263238"/>
<path d="M78.7476 65.4037L79.5152 65.234L80.3232 65.0441C80.8605 64.9108 81.3978 64.7653 81.9392 64.6118C83.0057 64.3007 84.0561 63.9573 85.0702 63.5655C86.0658 63.1879 87.0348 62.7438 87.9709 62.2363C88.8374 61.7712 89.6433 61.2014 90.3706 60.5395L90.613 60.3052C90.6777 60.2284 90.7423 60.1638 90.811 60.083C90.9484 59.9133 91.0938 59.7275 91.2352 59.5174C91.5261 59.1134 91.817 58.6528 92.0917 58.1761C92.6371 57.2186 93.1784 56.2086 93.7077 55.1744C94.7338 53.114 95.7277 50.9728 96.7134 48.8599L98.9718 49.5871C98.4684 51.9492 97.8194 54.278 97.0286 56.5601C96.6246 57.7075 96.2206 58.8589 95.6792 60.0103C95.4166 60.5839 95.1338 61.1617 94.7944 61.7555C94.6248 62.0505 94.4349 62.3494 94.2208 62.6565C94.1157 62.81 93.9824 62.9716 93.8652 63.1251L93.5057 63.5291C93.0289 64.051 92.5145 64.5371 91.9664 64.9835C91.4352 65.4028 90.8823 65.7938 90.31 66.1551C89.2062 66.8443 88.0483 67.4428 86.8478 67.9448C85.6852 68.4401 84.494 68.865 83.2804 69.2174C82.6798 69.3952 82.0738 69.5568 81.4624 69.7022C81.1594 69.779 80.8524 69.8517 80.5413 69.9163C80.2302 69.981 79.9394 70.0335 79.5717 70.0981L78.7476 65.4037Z" fill="#FFB573"/>
<path d="M77.164 70.8536C79.588 72.5625 88.4073 69.7628 88.4073 69.7628L87.1953 61.9696C87.1953 61.9696 83.5876 62.822 79.8021 63.933C77.2286 64.6764 74.5016 68.9952 77.164 70.8536Z" fill="#5FCDAA"/>
<path d="M96.3215 50.1243L96.9195 46.7913L99.9575 48.7345C99.8382 49.2035 99.6244 49.6432 99.3291 50.0267C99.0339 50.4101 98.6634 50.7293 98.2405 50.9646L96.3215 50.1243Z" fill="#FFB573"/>
<path d="M97.7762 44.8966L100.127 44.0563L99.9618 48.7346L96.9197 46.7914L97.7762 44.8966Z" fill="#FFB573"/>
<path opacity="0.2" d="M56.1438 152.522L59.097 153.54L57.376 156.978L54.4187 155.964L56.1438 152.522Z" fill="white"/>
<path d="M65.8521 64.7532C66.4606 68.2235 66.8063 71.7349 66.8863 75.2572C66.955 77.7216 66.9186 80.0608 66.8297 82.1858C66.6318 87.155 66.1712 90.9284 66.1995 92.2212L83.0988 92.0111C87.058 74.2028 83.5553 64.7088 83.5553 64.7088C82.2469 64.3818 80.9191 64.1376 79.58 63.9775C79.2972 63.9452 79.0103 63.9169 78.7154 63.8927C76.32 63.7845 73.9203 63.8141 71.5283 63.9816C71.0758 64.0099 70.6152 64.0503 70.1668 64.0947C67.872 64.3169 65.8521 64.7532 65.8521 64.7532Z" fill="#5FCDAA"/>
<path d="M71.508 63.9653C73.9 63.7979 76.2997 63.7682 78.6951 63.8765C78.986 63.9007 79.2769 63.929 79.5597 63.9613H79.6607C80.0647 65.044 80.1172 67.3791 77.7457 67.569C74.5137 67.8276 71.508 65.7147 70.1465 64.0704C70.607 64.034 71.0716 63.9936 71.508 63.9653Z" fill="white"/>
<path opacity="0.2" d="M69.6656 69.5365C69.4467 72.1407 68.4895 74.6283 66.9063 76.7075C66.9063 76.2267 66.9063 75.7379 66.882 75.245C66.8295 73.3947 66.7164 71.4757 66.5144 69.5325L69.6656 69.5365Z" fill="white"/>
<path d="M72.4291 55.8693C72.8331 58.1761 73.1806 62.406 71.5242 63.9493C72.2267 64.6859 73.0828 65.2589 74.0317 65.6275C74.9806 65.9962 75.9989 66.1515 77.0145 66.0824C79.0063 66.0177 79.1355 64.6239 78.7113 63.8604C76.1459 63.2786 76.2591 61.3637 76.7519 59.5618L72.4291 55.8693Z" fill="#FFB573"/>
<path opacity="0.2" d="M74.1906 57.368L76.7479 59.5618C76.628 59.9793 76.5442 60.4065 76.4974 60.8384C75.5157 60.7091 74.1865 59.6466 74.1057 58.6164C74.0582 58.1986 74.087 57.7756 74.1906 57.368Z" fill="white"/>
<path d="M81.1796 49.4012C83.1108 48.4356 82.226 45.4743 82.226 45.4743C82.226 45.4743 81.2039 45.45 80.0888 46.6863C80.5938 45.1592 79.7454 42.6705 79.4626 41.705C75.5883 43.3856 75.3297 45.0097 75.3297 45.0097C75.3297 45.0097 74.5217 43.7977 73.7622 43.729C73.1616 44.0983 72.6963 44.6518 72.4357 45.307C72.1751 45.9622 72.1331 46.684 72.3159 47.365C71.6771 46.9939 70.9635 46.7703 70.2272 46.7105C69.9339 47.6295 69.9813 48.6233 70.3605 49.5102C69.9149 49.741 69.5541 50.1074 69.3303 50.5566C69.6837 50.781 70.0602 50.9666 70.4534 51.1101C70.3928 52.3221 70.6514 53.9946 71.524 54.94L80.412 50.7869C81.9149 51.4373 82.5856 50.9687 82.5856 50.9687C82.5856 50.9687 82.2381 49.692 81.1796 49.4012Z" fill="#263238"/>
<path d="M72.2351 52.3948C72.3523 55.5218 72.2634 57.364 73.8067 58.9517C76.1297 61.3353 80.0243 59.8567 80.8444 56.7216C81.5837 53.8936 81.2484 49.2638 78.2305 48.0558C75.2126 46.8479 72.1139 49.288 72.2351 52.3948Z" fill="#FFB573"/>
<path d="M75.1198 48.884C75.3218 50.5242 73.0998 51.7362 73.617 54.1602C73.2322 54.7307 72.7652 55.2412 72.2312 55.6752L71.3303 53.2068L71.7788 48.682L74.7845 48.4275L75.1198 48.884Z" fill="#263238"/>
<path d="M73.0352 48.682C75.3905 50.2091 79.3416 49.9385 80.4405 49.5587C79.891 47.5831 77.6812 47.0216 77.6812 47.0216C77.6812 47.0216 73.9765 46.6863 73.0352 48.682Z" fill="#263238"/>
<path d="M77.8911 56.7096C77.5267 56.7249 77.1641 56.6499 76.8357 56.4913C76.5073 56.3327 76.2231 56.0954 76.0084 55.8006C75.9987 55.7815 75.9962 55.7595 76.0014 55.7387C76.0066 55.7179 76.0192 55.6997 76.0367 55.6875C76.0454 55.6816 76.0551 55.6775 76.0654 55.6756C76.0757 55.6736 76.0863 55.6738 76.0965 55.676C76.1067 55.6783 76.1163 55.6826 76.1248 55.6888C76.1333 55.6949 76.1404 55.7027 76.1458 55.7117C76.349 55.9811 76.614 56.1977 76.9184 56.3433C77.2229 56.4888 77.5578 56.559 77.8951 56.548C77.9055 56.548 77.9159 56.5501 77.9255 56.5542C77.935 56.5583 77.9437 56.5643 77.9509 56.5719C77.9581 56.5794 77.9636 56.5884 77.9672 56.5982C77.9708 56.6079 77.9724 56.6184 77.9719 56.6288C77.9719 56.6502 77.9634 56.6708 77.9482 56.6859C77.9331 56.7011 77.9125 56.7096 77.8911 56.7096Z" fill="#263238"/>
<path d="M70.7405 55.8612C70.9409 56.1896 71.2062 56.4736 71.5202 56.6959C71.8342 56.9181 72.1902 57.074 72.5665 57.154C73.5806 57.3681 74.0573 56.4349 73.7462 55.5057C73.4634 54.6694 72.5989 53.5544 71.5929 53.7604C71.3742 53.8071 71.1702 53.9066 70.9988 54.0504C70.8274 54.1941 70.6939 54.3776 70.6098 54.5848C70.5257 54.7921 70.4936 55.0168 70.5164 55.2393C70.5392 55.4618 70.6161 55.6753 70.7405 55.8612Z" fill="#FFB573"/>
<path opacity="0.2" d="M74.9098 99.6506L73.5281 102.37C74.1624 107.508 74.8896 113.811 75.3744 119.382C76.4773 113.779 77.1924 103.02 74.9098 99.6506Z" fill="white"/>
<path d="M77.7175 92.0636C77.7175 92.0636 73.7906 114.469 72.0373 123.616C70.1142 133.631 58.984 156.752 58.984 156.752L53.5745 154.894C53.5745 154.894 62.515 131.866 63.4846 121.984C64.5875 110.749 66.1793 92.201 66.1793 92.201L77.7175 92.0636Z" fill="#263238"/>
<path d="M59.4283 157.039L53.0532 154.849L53.7764 152.918L60.5797 155.116L59.4283 157.039Z" fill="#5FCDAA"/>
<path d="M76.9619 53.2109C76.9619 53.4654 77.0872 53.6714 77.2528 53.6674C77.4184 53.6634 77.5598 53.4573 77.5639 53.2028C77.5679 52.9483 77.4427 52.7422 77.273 52.7463C77.1033 52.7503 76.966 52.9564 76.9619 53.2109Z" fill="#263238"/>
<path d="M79.8425 53.1746C79.8425 53.4291 79.9678 53.6351 80.1334 53.6311C80.299 53.627 80.4404 53.421 80.4485 53.1665C80.4566 52.912 80.3233 52.71 80.1536 52.71C79.9839 52.71 79.8506 52.9241 79.8425 53.1746Z" fill="#263238"/>
<path d="M78.9253 53.328C79.2102 54.1006 79.6018 54.8295 80.0888 55.4934C79.6283 55.9217 78.8364 55.6752 78.8364 55.6752L78.9253 53.328Z" fill="#ED893E"/>
<path d="M76.0894 52.2897C76.1165 52.2946 76.1445 52.2919 76.1701 52.2819C76.1958 52.272 76.2182 52.2551 76.2349 52.2332C76.347 52.0787 76.4931 51.9521 76.6619 51.8631C76.8307 51.7742 77.0178 51.7252 77.2085 51.7201C77.2486 51.7223 77.288 51.7088 77.3182 51.6824C77.3484 51.6559 77.367 51.6187 77.3701 51.5787C77.3724 51.5595 77.3706 51.54 77.365 51.5215C77.3594 51.503 77.3501 51.4858 77.3376 51.471C77.3251 51.4563 77.3097 51.4442 77.2924 51.4356C77.275 51.427 77.2561 51.4221 77.2368 51.4211C76.9956 51.4235 76.7583 51.482 76.5437 51.5921C76.3291 51.7022 76.1431 51.8609 76.0006 52.0554C75.9769 52.0869 75.9662 52.1262 75.9707 52.1653C75.9752 52.2044 75.9946 52.2403 76.0248 52.2655C76.0446 52.2777 76.0665 52.286 76.0894 52.2897Z" fill="#263238"/>
<path d="M81.1029 52.1686C81.1318 52.1782 81.1629 52.1782 81.1918 52.1686C81.2276 52.1519 81.2556 52.1219 81.2699 52.0851C81.2842 52.0482 81.2837 52.0072 81.2686 51.9707C81.1724 51.7592 81.0254 51.5748 80.8407 51.4338C80.6561 51.2929 80.4394 51.1997 80.2101 51.1627C80.1706 51.158 80.1308 51.1689 80.0991 51.193C80.0675 51.2171 80.0464 51.2526 80.0404 51.292C80.0376 51.3111 80.0386 51.3306 80.0433 51.3493C80.0481 51.368 80.0566 51.3856 80.0682 51.4011C80.0799 51.4165 80.0945 51.4294 80.1113 51.4391C80.128 51.4488 80.1465 51.4551 80.1656 51.4576C80.344 51.4957 80.5105 51.5761 80.6511 51.6921C80.7918 51.8082 80.9024 51.9564 80.9736 52.1242C80.9897 52.1419 81.0099 52.1553 81.0326 52.1631C81.0552 52.1708 81.0794 52.1728 81.1029 52.1686Z" fill="#263238"/>
<path d="M56.7579 161.39C56.9215 161.526 57.1269 161.601 57.3396 161.604C57.4147 161.597 57.487 161.573 57.5503 161.532C57.6137 161.491 57.6662 161.435 57.7032 161.37C57.7299 161.335 57.7463 161.294 57.7505 161.25C57.7548 161.206 57.7468 161.163 57.7275 161.123C57.5578 160.776 56.366 160.719 56.2327 160.695C56.2175 160.695 56.2025 160.698 56.1896 160.706C56.1766 160.714 56.1663 160.726 56.1599 160.74C56.1508 160.751 56.1458 160.765 56.1458 160.78C56.1458 160.795 56.1508 160.809 56.1599 160.82C56.3359 161.033 56.5366 161.225 56.7579 161.39ZM57.5255 161.123C57.554 161.14 57.5777 161.163 57.5941 161.192C57.603 161.207 57.6077 161.225 57.6077 161.243C57.6077 161.26 57.603 161.278 57.5941 161.293C57.5693 161.338 57.5339 161.376 57.491 161.404C57.448 161.433 57.3988 161.45 57.3477 161.455C57.1255 161.475 56.7821 161.257 56.4185 160.861C56.8013 160.874 57.1776 160.963 57.5255 161.123Z" fill="#5FCDAA"/>
<path d="M56.1804 160.832C56.1908 160.836 56.2023 160.836 56.2127 160.832C56.5803 160.877 57.5055 160.671 57.663 160.344C57.6871 160.294 57.693 160.237 57.6797 160.183C57.6665 160.129 57.6349 160.082 57.5903 160.049C57.5487 160.01 57.4995 159.981 57.4459 159.963C57.3923 159.945 57.3356 159.938 57.2792 159.944C56.8066 159.98 56.1965 160.683 56.1682 160.711C56.1615 160.723 56.158 160.736 56.158 160.75C56.158 160.763 56.1615 160.776 56.1682 160.788C56.1667 160.804 56.171 160.82 56.1804 160.832ZM57.461 160.15H57.4853C57.558 160.218 57.5378 160.259 57.5297 160.275C57.4368 160.469 56.7985 160.679 56.3904 160.679C56.6241 160.398 56.9342 160.19 57.2833 160.081C57.3492 160.08 57.4129 160.105 57.461 160.15Z" fill="#5FCDAA"/>
<path d="M68.8335 69.6052L67.8397 70.8172C67.5043 71.2212 67.1731 71.6454 66.8458 72.0696C66.1913 72.9099 65.553 73.761 64.9309 74.6229C64.3208 75.4874 63.7189 76.3601 63.1775 77.2408C62.6361 78.1215 62.115 79.0184 61.6908 79.9153L61.6059 80.0849L61.5736 80.1617C61.5433 80.2225 61.5189 80.2861 61.5009 80.3516C61.4459 80.5344 61.4027 80.7207 61.3716 80.9091C61.2934 81.3728 61.2449 81.8411 61.2262 82.311C61.1858 83.3089 61.1979 84.3714 61.2545 85.4379C61.3595 87.5711 61.5534 89.7769 61.7675 91.9423L59.4567 92.4797C58.6939 90.3243 58.093 88.115 57.6589 85.8702C57.4347 84.7103 57.2809 83.5379 57.1983 82.3595C57.1598 81.719 57.1598 81.0769 57.1983 80.4364C57.2273 80.0729 57.2772 79.7114 57.3478 79.3537C57.3963 79.1557 57.4326 78.9699 57.5094 78.7437L57.6144 78.4285L57.6993 78.2185C58.576 76.0136 59.6838 73.9078 61.004 71.9363C61.6423 70.9667 62.3129 70.0294 63.024 69.1083C63.3755 68.6517 63.735 68.2033 64.1027 67.7549C64.4703 67.3064 64.8339 66.8822 65.2541 66.4136L68.8335 69.6052Z" fill="#FFB573"/>
<path d="M65.852 64.7531C62.8462 65.1814 59.5859 72.2594 59.5859 72.2594L65.2743 77.6407C65.2743 77.6407 67.6336 74.0815 69.5769 70.6273C71.6898 66.866 69.488 64.236 65.852 64.7531Z" fill="#5FCDAA"/>
<path d="M61.4928 91.2596L63.3957 93.7766L59.4405 94.734C59.4405 94.734 58.3093 92.2171 59.6021 91.4212L61.4928 91.2596Z" fill="#FFB573"/>
<path d="M63.3309 96.4146L60.0303 97.0529L59.4404 94.734L63.3956 93.7765L63.3309 96.4146Z" fill="#FFB573"/>
<path d="M153.314 157.423L150.332 158.699L146.199 152.304L149.177 151.023L153.314 157.423Z" fill="#FFC3BD"/>
<path opacity="0.2" d="M149.181 151.023L146.199 152.304L148.333 155.601L151.314 154.324L149.181 151.023Z" fill="white"/>
<path d="M125.947 93.0049C125.947 93.0049 131.199 119.443 133.829 128.557C136.71 138.572 146.652 155.508 146.652 155.508L152.11 153.165C152.11 153.165 146.05 139.509 143.626 129.652C140.883 118.429 137.089 92.0797 137.089 92.0797L125.947 93.0049Z" fill="#5FCDAA"/>
<path opacity="0.2" d="M130.294 100.596C130.969 107.945 131.13 113.12 131.409 118.808C130.027 112.773 128.553 105.775 127.482 100.596H130.294Z" fill="white"/>
<path d="M131.55 164.836L128.306 164.788L127.563 157.265L130.803 157.314L131.55 164.836Z" fill="#FFC3BD"/>
<path opacity="0.2" d="M127.563 157.265L127.947 161.144L131.191 161.196L130.807 157.318L127.563 157.265Z" fill="white"/>
<path d="M126.743 160.388L132.233 160.473C132.233 160.473 130.068 139.138 129.357 129.058C129.139 125.991 129.24 121.657 129.498 116.99C129.821 111.108 130.035 108.753 130.48 101.319C130.795 96.0187 131.179 92.5847 131.179 92.5847L119.814 93.518C119.814 93.518 119.37 119.257 120.659 129.07C122.008 139.259 126.743 160.388 126.743 160.388Z" fill="#5FCDAA"/>
<path d="M128.335 164.428L131.878 164.485C131.942 164.484 132.004 164.506 132.053 164.547C132.102 164.587 132.136 164.644 132.148 164.707L132.746 167.599C132.762 167.669 132.761 167.742 132.744 167.812C132.727 167.882 132.694 167.947 132.648 168.002C132.602 168.057 132.544 168.1 132.478 168.129C132.413 168.158 132.341 168.172 132.27 168.169C130.993 168.129 129.147 168.024 127.543 167.999C125.664 167.971 125.45 168.048 123.248 167.999C121.919 167.979 121.572 166.63 122.129 166.517C124.674 166 125.337 165.971 127.551 164.654C127.787 164.509 128.058 164.431 128.335 164.428Z" fill="#263238"/>
<path d="M126.052 160.493L132.593 160.594L132.629 158.481L125.628 158.255L126.052 160.493Z" fill="#5FCDAA"/>
<path opacity="0.3" d="M126.052 160.493L132.593 160.594L132.629 158.481L125.628 158.255L126.052 160.493Z" fill="white"/>
<path d="M128.011 164.856C128.024 164.85 128.036 164.841 128.045 164.83C128.054 164.819 128.06 164.806 128.064 164.792C128.066 164.776 128.063 164.761 128.056 164.747C128.048 164.733 128.037 164.722 128.023 164.715C127.878 164.634 126.585 163.955 126.185 164.165C126.148 164.186 126.117 164.216 126.094 164.252C126.071 164.288 126.058 164.329 126.056 164.371C126.048 164.44 126.056 164.51 126.08 164.576C126.103 164.641 126.142 164.7 126.193 164.747C126.545 165.066 127.478 164.953 127.999 164.856H128.011ZM126.286 164.291C126.533 164.21 127.236 164.489 127.745 164.743C127.03 164.852 126.496 164.812 126.298 164.634C126.265 164.602 126.239 164.563 126.224 164.52C126.208 164.476 126.203 164.429 126.209 164.384C126.209 164.367 126.214 164.35 126.222 164.336C126.231 164.322 126.243 164.31 126.258 164.303L126.286 164.291Z" fill="#5FCDAA"/>
<path d="M128.012 164.856H128.032C128.042 164.848 128.05 164.838 128.056 164.826C128.062 164.814 128.064 164.801 128.064 164.788C128.064 164.751 127.987 163.874 127.579 163.531C127.522 163.48 127.455 163.441 127.382 163.418C127.309 163.394 127.231 163.386 127.155 163.394C126.945 163.394 126.88 163.515 126.864 163.604C126.8 163.967 127.567 164.682 127.955 164.864C127.974 164.868 127.994 164.865 128.012 164.856ZM127.09 163.547H127.167C127.224 163.542 127.28 163.549 127.334 163.567C127.387 163.585 127.437 163.614 127.478 163.652C127.715 163.937 127.856 164.289 127.882 164.658C127.478 164.412 126.969 163.85 127.01 163.632C127.018 163.62 127.026 163.567 127.09 163.547Z" fill="#5FCDAA"/>
<path d="M149.654 158.55L153.051 156.53C153.107 156.497 153.172 156.483 153.236 156.492C153.3 156.501 153.359 156.531 153.403 156.578L155.423 158.728C155.472 158.78 155.508 158.843 155.53 158.912C155.551 158.981 155.556 159.054 155.545 159.125C155.534 159.196 155.507 159.264 155.467 159.323C155.426 159.382 155.372 159.431 155.31 159.467C154.207 160.097 153.37 160.509 151.997 161.329C151.148 161.834 149.193 163.095 148.026 163.79C146.858 164.485 146.038 163.446 146.41 163.034C148.171 161.176 148.963 160.02 149.282 158.994C149.345 158.804 149.478 158.645 149.654 158.55Z" fill="#263238"/>
<path d="M101.808 50.3263L102.438 47.4983L99.089 46.5247C99.089 46.5247 98.0709 49.2597 100.038 50.5647L101.808 50.3263Z" fill="#FFC3BD"/>
<path d="M102.002 44.7592L99.4002 43.3613L99.0811 46.5408L102.43 47.5144L102.002 44.7592Z" fill="#FFC3BD"/>
<path d="M118.097 70.9707C116.853 70.6233 115.726 70.2395 114.558 69.8193C113.391 69.3991 112.259 68.9426 111.124 68.4417C109.989 67.9407 108.866 67.4155 107.751 66.8257C107.193 66.5429 106.64 66.2197 106.086 65.9045L105.278 65.3995L105.072 65.2743L104.765 65.0723C104.563 64.9296 104.373 64.7841 104.196 64.636C103.562 64.088 103.011 63.4511 102.559 62.7453C102.165 62.1376 101.82 61.5001 101.525 60.8384C100.998 59.6259 100.582 58.3684 100.281 57.0812C99.7009 54.6394 99.3933 52.1409 99.3638 49.6314L102.341 49.2274C102.968 51.4202 103.711 53.5779 104.567 55.6914C104.969 56.6767 105.444 57.6301 105.989 58.5437C106.229 58.9451 106.499 59.3274 106.797 59.687C107.024 59.9589 107.287 60.1994 107.577 60.4021C107.625 60.4343 107.675 60.464 107.727 60.4909C107.753 60.4972 107.777 60.5082 107.799 60.5233L107.985 60.6081L108.72 60.9636C109.229 61.1899 109.73 61.4201 110.248 61.6383C111.278 62.0787 112.336 62.4867 113.403 62.8907C114.469 63.2947 115.548 63.6987 116.635 64.0542L119.867 65.1571L118.097 70.9707Z" fill="#5FCDAA"/>
<path d="M128.811 55.348C128.577 57.7518 128.537 62.1231 130.342 63.5371C129.183 64.939 127.652 66.5752 124.856 66.9469C122.06 67.3185 122.363 65.3309 123.006 64.2522C125.579 63.3674 125.321 61.4242 124.682 59.6304L128.811 55.348Z" fill="#FFC3BD"/>
<path d="M121.483 53.0129C121.455 53.2755 121.297 53.4735 121.127 53.4573C120.958 53.4411 120.841 53.2149 120.865 52.9523C120.889 52.6897 121.051 52.4958 121.22 52.5119C121.39 52.5281 121.507 52.7543 121.483 53.0129Z" fill="#263238"/>
<path d="M121.39 53.2675C121.002 54.0333 120.51 54.7416 119.927 55.3723C120.091 55.5162 120.285 55.6225 120.494 55.684C120.704 55.7454 120.924 55.7603 121.139 55.7278L121.39 53.2675Z" fill="#ED847E"/>
<path d="M122.178 52.0392C122.154 52.0303 122.133 52.0156 122.117 51.9965C122.101 51.9775 122.09 51.9547 122.085 51.9301C122.047 51.7408 121.965 51.5632 121.845 51.4121C121.724 51.261 121.57 51.1408 121.394 51.0615C121.375 51.0547 121.357 51.0441 121.342 51.0304C121.327 51.0167 121.315 51.0002 121.306 50.9818C121.298 50.9634 121.293 50.9435 121.292 50.9232C121.291 50.903 121.294 50.8827 121.301 50.8636C121.308 50.8445 121.318 50.8269 121.332 50.8119C121.346 50.7969 121.362 50.7848 121.381 50.7761C121.399 50.7675 121.419 50.7626 121.439 50.7616C121.46 50.7607 121.48 50.7638 121.499 50.7707C121.722 50.8693 121.919 51.0196 122.073 51.2093C122.227 51.3989 122.333 51.6225 122.384 51.8615C122.392 51.9011 122.384 51.9424 122.363 51.9765C122.341 52.0106 122.306 52.0346 122.267 52.0433C122.237 52.0521 122.206 52.0507 122.178 52.0392Z" fill="#263238"/>
<path d="M130.371 53.2229C129.745 56.3822 129.539 58.2608 127.712 59.6869C124.961 61.8201 121.228 59.8324 120.897 56.5519C120.598 53.5987 121.669 48.9325 124.957 48.0679C125.682 47.8773 126.443 47.8753 127.169 48.062C127.894 48.2488 128.56 48.618 129.103 49.1347C129.645 49.6513 130.047 50.2982 130.269 51.0138C130.491 51.7294 130.526 52.4899 130.371 53.2229Z" fill="#FFC3BD"/>
<path d="M123.959 54.1036C123.05 53.0573 123.39 50.803 123.959 49.7243C123.289 50.1525 121.006 49.999 120.994 48.2093C120.974 45.5873 125.381 44.9773 127.797 45.4378C130.581 45.9873 133.078 48.5971 134.039 47.6962C135.029 49.4415 133.296 50.0515 133.296 50.0515C133.296 50.0515 135.017 54.3945 128.718 58.6486C127.854 58.5271 126.976 58.564 126.125 58.7577C125.93 58.7571 125.743 58.6802 125.604 58.5436C124.965 57.9053 123.22 55.9338 123.959 54.1036Z" fill="#263238"/>
<path d="M133.057 49.9546C133.057 49.9546 134.245 50.2051 134.649 49.4415C134.532 50.5323 133.865 50.5404 133.057 49.9546Z" fill="#263238"/>
<path d="M126.048 55.1056C125.649 55.8103 124.986 56.3277 124.206 56.5439C123.171 56.8186 122.662 55.8894 122.961 54.9279C123.228 54.0512 124.093 52.8553 125.127 53.0048C126.161 53.1543 126.521 54.2411 126.048 55.1056Z" fill="#FFC3BD"/>
<path d="M138.382 66.2964C138.847 66.7408 139.226 67.1407 139.626 67.569C140.026 67.9972 140.406 68.4214 140.774 68.8618C141.521 69.7304 142.232 70.6313 142.927 71.5443C143.622 72.4574 144.285 73.3947 144.911 74.3723L145.44 75.144C145.638 75.4349 145.8 75.7338 145.969 76.0287C146.287 76.6147 146.564 77.2222 146.797 77.8467C147.246 79.0227 147.575 80.2409 147.779 81.4827C147.983 82.6738 148.097 83.8784 148.123 85.0864C148.159 86.2645 148.124 87.4436 148.018 88.6174C147.92 89.7935 147.748 90.9621 147.5 92.116L144.515 91.7888C144.462 90.7828 144.386 89.6839 144.268 88.6416C144.151 87.5993 143.998 86.5489 143.808 85.5308C143.478 83.5801 142.878 81.6847 142.026 79.8991C141.823 79.504 141.598 79.1209 141.352 78.7517C141.226 78.578 141.109 78.3962 140.98 78.2386C140.907 78.1538 140.863 78.0891 140.774 77.9881L140.511 77.6811C139.8 76.8731 139.097 76.0651 138.374 75.2571C137.651 74.4491 136.936 73.6411 136.217 72.8695L134.096 70.5465L138.382 66.2964Z" fill="#5FCDAA"/>
<path d="M130.387 68.8617C129.87 71.2009 137.049 75.4591 137.049 75.4591L142.729 70.6111C141.288 68.5465 139.666 66.6144 137.881 64.8379C134.936 61.9049 131.227 65.0722 130.387 68.8617Z" fill="#263238"/>
<path opacity="0.2" d="M135.376 71.314C134.35 70.7525 134.193 72.0332 134.35 73.6613C135.78 74.7076 137.045 75.4591 137.045 75.4591L137.768 74.841C137.199 73.3502 136.407 71.8756 135.376 71.314Z" fill="white"/>
<path d="M144.45 91.2798L142.955 93.2756L146.547 94.7582C146.547 94.7582 147.484 93.1422 147.286 91.9302C147.241 91.6992 147.129 91.4864 146.965 91.3178C146.801 91.1492 146.591 91.0321 146.361 90.9808L145.707 90.8273C145.476 90.7714 145.234 90.7845 145.01 90.8649C144.787 90.9453 144.592 91.0896 144.45 91.2798Z" fill="#FFC3BD"/>
<path d="M142.232 96.4792L145.618 97.2307L146.547 94.7582L142.955 93.2755L142.232 96.4792Z" fill="#FFC3BD"/>
<path d="M136.673 65.351C135.203 77.77 139.162 93.0977 139.259 95.651C136.722 95.8611 124.182 97.0165 118.974 97.4407C115.952 75.3298 118.736 64.842 118.736 64.842C118.736 64.842 119.814 64.4945 121.297 64.1592C121.762 64.0542 122.267 63.9532 122.792 63.8603C123.079 63.8077 123.378 63.7633 123.677 63.7189C126.123 63.4692 128.582 63.3586 131.041 63.3876C131.506 63.3876 131.983 63.3876 132.443 63.4239C132.904 63.4603 133.288 63.4724 133.684 63.5007C134.294 63.5492 134.859 63.6057 135.34 63.6583C135.539 63.6808 135.732 63.7426 135.907 63.8401C136.082 63.9376 136.236 64.0688 136.36 64.2263C136.484 64.3837 136.576 64.5642 136.629 64.7573C136.683 64.9503 136.698 65.1521 136.673 65.351Z" fill="#263238"/>
<path opacity="0.2" d="M117.871 70.8091C117.81 71.4434 117.762 72.1342 117.721 72.8776C118.869 72.7644 120.263 72.4736 120.852 71.811C121.572 70.9707 119.374 70.8212 117.871 70.8091Z" fill="white"/>
<path d="M122.198 71.9403C119.422 73.3139 114.166 70.9707 114.166 70.9707L114.251 62.822C114.251 62.822 119.927 63.7351 123.947 63.6947C128.068 63.6543 125.24 70.4293 122.198 71.9403Z" fill="#263238"/>
<path d="M146.05 155.904L152.478 153.148L151.654 151.225L144.361 153.625L146.05 155.904Z" fill="#5FCDAA"/>
<path opacity="0.3" d="M146.05 155.904L152.478 153.148L151.654 151.225L144.361 153.625L146.05 155.904Z" fill="white"/>
<path d="M149.024 159.58C149.266 159.428 149.491 159.249 149.694 159.047C149.702 159.035 149.706 159.021 149.706 159.006C149.706 158.992 149.702 158.978 149.694 158.966C149.69 158.951 149.681 158.939 149.668 158.93C149.656 158.921 149.641 158.917 149.625 158.917C149.484 158.917 148.26 158.897 148.046 159.237C148.022 159.275 148.01 159.319 148.01 159.364C148.01 159.409 148.022 159.453 148.046 159.491C148.077 159.56 148.125 159.621 148.184 159.667C148.244 159.714 148.315 159.745 148.389 159.758C148.615 159.776 148.84 159.713 149.024 159.58ZM149.448 159.067C149.044 159.447 148.64 159.645 148.43 159.608C148.378 159.599 148.33 159.577 148.289 159.545C148.248 159.513 148.216 159.47 148.195 159.422C148.185 159.408 148.18 159.39 148.18 159.372C148.18 159.354 148.185 159.336 148.195 159.321C148.3 159.148 148.955 159.079 149.448 159.071V159.067Z" fill="#5FCDAA"/>
<path d="M149.678 159.063C149.691 159.054 149.702 159.043 149.71 159.031C149.717 159.019 149.721 159.006 149.721 158.992C149.721 158.979 149.717 158.965 149.71 158.954C149.686 158.921 149.141 158.146 148.66 158.085C148.602 158.074 148.543 158.075 148.485 158.089C148.428 158.103 148.375 158.129 148.329 158.166C148.279 158.196 148.242 158.242 148.223 158.297C148.204 158.351 148.204 158.411 148.224 158.465C148.349 158.812 149.27 159.087 149.65 159.075L149.678 159.063ZM148.442 158.255C148.5 158.223 148.567 158.212 148.632 158.223C148.939 158.271 149.306 158.683 149.48 158.901C149.076 158.853 148.434 158.602 148.357 158.4C148.357 158.38 148.337 158.336 148.414 158.275L148.442 158.255Z" fill="#5FCDAA"/>
<path opacity="0.9" d="M99.8889 31.0636H99.4163V33.3543H99.8889V31.0636Z" fill="#5FCDAA"/>
<path opacity="0.9" d="M99.8889 34.4734H99.4163V40.2627H99.8889V34.4734Z" fill="#5FCDAA"/>
<path opacity="0.9" d="M104.82 40.0725L102.342 42.548L102.676 42.8824L105.154 40.4069L104.82 40.0725Z" fill="#5FCDAA"/>
<path opacity="0.9" d="M109.036 45.3491H105.379V45.8218H109.036V45.3491Z" fill="#5FCDAA"/>
<path opacity="0.9" d="M93.4505 39.052L93.1162 39.3862L96.6214 42.8914L96.9556 42.5572L93.4505 39.052Z" fill="#5FCDAA"/>
<path opacity="0.9" d="M93.926 45.3491H92.2898V45.8218H93.926V45.3491Z" fill="#5FCDAA"/>
</svg>
