<svg width="324" height="324" viewBox="0 0 324 324" fill="none" xmlns="http://www.w3.org/2000/svg">
<path d="M159.058 92.5409C159.939 103.557 172.666 117.865 176.735 122.193C176.895 122.365 177.089 122.502 177.304 122.595C177.519 122.689 177.751 122.737 177.986 122.737C178.221 122.737 178.453 122.689 178.668 122.595C178.883 122.502 179.077 122.365 179.237 122.193C183.319 117.865 196.033 103.55 196.914 92.5409C196.944 92.2029 196.875 91.8634 196.715 91.5642C196.555 91.2649 196.311 91.0188 196.013 90.8561L178.803 81.5703C178.552 81.433 178.271 81.3611 177.986 81.3611C177.701 81.3611 177.42 81.433 177.17 81.5703L159.959 90.8561C159.662 91.0201 159.419 91.2664 159.259 91.5653C159.099 91.8643 159.029 92.2031 159.058 92.5409Z" fill="#407BFF"/>
<path opacity="0.3" d="M176.709 118.02C171.525 112.188 164.009 102.384 162.214 94.5822C162.132 94.2196 162.169 93.8404 162.318 93.5C162.467 93.1596 162.721 92.8758 163.043 92.69L177.131 84.59C177.392 84.4405 177.688 84.3619 177.989 84.3619C178.29 84.3619 178.586 84.4405 178.848 84.59L192.935 92.6641C193.266 92.8537 193.525 93.1467 193.672 93.498C193.82 93.8493 193.848 94.2394 193.752 94.6081C191.963 102.423 184.472 112.188 179.262 118.046C179.101 118.225 178.903 118.368 178.682 118.465C178.461 118.562 178.221 118.611 177.98 118.608C177.739 118.606 177.501 118.552 177.282 118.451C177.062 118.35 176.867 118.203 176.709 118.02Z" fill="#407BFF"/>
<path opacity="0.3" d="M176.709 118.02C171.525 112.188 164.009 102.384 162.214 94.5822C162.132 94.2196 162.169 93.8404 162.318 93.5C162.467 93.1596 162.721 92.8758 163.043 92.69L177.131 84.59C177.392 84.4405 177.688 84.3619 177.989 84.3619C178.29 84.3619 178.586 84.4405 178.848 84.59L192.935 92.6641C193.266 92.8537 193.525 93.1467 193.672 93.498C193.82 93.8493 193.848 94.2394 193.752 94.6081C191.963 102.423 184.472 112.188 179.262 118.046C179.101 118.225 178.903 118.368 178.682 118.465C178.461 118.562 178.221 118.611 177.98 118.608C177.739 118.606 177.501 118.552 177.282 118.451C177.062 118.35 176.867 118.203 176.709 118.02Z" fill="white"/>
<path d="M176.068 106.194C175.94 106.195 175.814 106.169 175.696 106.121C175.578 106.072 175.471 106 175.381 105.909L170.579 101.088C170.408 100.904 170.314 100.66 170.319 100.408C170.323 100.156 170.425 99.9162 170.603 99.7381C170.781 99.56 171.022 99.458 171.273 99.4536C171.525 99.4491 171.769 99.5426 171.953 99.7143L176.068 103.823L185.788 94.135C185.971 93.9546 186.218 93.8534 186.475 93.8534C186.732 93.8534 186.979 93.9546 187.162 94.135C187.253 94.2248 187.325 94.3318 187.374 94.4497C187.423 94.5676 187.449 94.6941 187.449 94.8219C187.449 94.9497 187.423 95.0762 187.374 95.1941C187.325 95.312 187.253 95.419 187.162 95.5088L176.794 105.877C176.701 105.977 176.589 106.057 176.464 106.111C176.339 106.166 176.204 106.194 176.068 106.194Z" fill="white"/>
<path d="M216.866 132.406H127.008C122.713 132.406 119.232 135.887 119.232 140.182V258.053C119.232 262.348 122.713 265.829 127.008 265.829H216.866C221.161 265.829 224.642 262.348 224.642 258.053V140.182C224.642 135.887 221.161 132.406 216.866 132.406Z" fill="#263238"/>
<path d="M222.918 132.406H133.06C128.766 132.406 125.284 135.887 125.284 140.182V258.053C125.284 262.348 128.766 265.829 133.06 265.829H222.918C227.213 265.829 230.694 262.348 230.694 258.053V140.182C230.694 135.887 227.213 132.406 222.918 132.406Z" fill="#407BFF"/>
<path d="M143.7 265.836H134.952C134.684 265.836 134.466 266.053 134.466 266.322V267.728C134.466 267.996 134.684 268.214 134.952 268.214H143.7C143.969 268.214 144.186 267.996 144.186 267.728V266.322C144.186 266.053 143.969 265.836 143.7 265.836Z" fill="#263238"/>
<path d="M221.02 265.836H212.272C212.003 265.836 211.786 266.053 211.786 266.322V267.728C211.786 267.996 212.003 268.214 212.272 268.214H221.02C221.288 268.214 221.506 267.996 221.506 267.728V266.322C221.506 266.053 221.288 265.836 221.02 265.836Z" fill="#263238"/>
<path opacity="0.2" d="M222.918 132.406H133.06C128.766 132.406 125.284 135.887 125.284 140.182V258.053C125.284 262.348 128.766 265.829 133.06 265.829H222.918C227.213 265.829 230.694 262.348 230.694 258.053V140.182C230.694 135.887 227.213 132.406 222.918 132.406Z" fill="black"/>
<g style="mix-blend-mode:color-dodge" opacity="0.4">
<path d="M212.33 250.446H143.642C142.855 250.444 142.101 250.131 141.545 249.574C140.989 249.018 140.676 248.264 140.674 247.478V150.77C140.674 149.982 140.987 149.227 141.543 148.669C142.099 148.112 142.854 147.798 143.642 147.796H212.33C213.118 147.798 213.872 148.112 214.429 148.669C214.985 149.227 215.298 149.982 215.298 150.77V247.478C215.296 248.264 214.983 249.018 214.427 249.574C213.87 250.131 213.117 250.444 212.33 250.446ZM143.642 148.12C142.94 148.122 142.268 148.402 141.772 148.898C141.276 149.395 140.998 150.068 140.998 150.77V247.478C140.998 247.825 141.066 248.169 141.199 248.489C141.332 248.81 141.527 249.102 141.772 249.347C142.018 249.593 142.309 249.787 142.63 249.92C142.951 250.053 143.295 250.122 143.642 250.122H212.33C213.031 250.122 213.704 249.843 214.199 249.347C214.695 248.851 214.974 248.179 214.974 247.478V150.77C214.974 150.068 214.695 149.395 214.2 148.898C213.704 148.402 213.032 148.122 212.33 148.12H143.642Z" fill="#E6E6E6"/>
</g>
<path d="M213.846 247.478V150.764C213.846 149.93 213.17 149.254 212.337 149.254H143.642C142.808 149.254 142.132 149.93 142.132 150.764V247.478C142.132 248.312 142.808 248.988 143.642 248.988H212.337C213.17 248.988 213.846 248.312 213.846 247.478Z" fill="#407BFF"/>
<path opacity="0.1" d="M213.846 247.478V150.764C213.846 149.93 213.17 149.254 212.337 149.254H143.642C142.808 149.254 142.132 149.93 142.132 150.764V247.478C142.132 248.312 142.808 248.988 143.642 248.988H212.337C213.17 248.988 213.846 248.312 213.846 247.478Z" fill="white"/>
<path d="M232.956 159.913H232.308V165.383H232.956V159.913Z" fill="#407BFF"/>
<path d="M232.956 140.182H232.308V154.153H232.956V140.182Z" fill="#407BFF"/>
<path opacity="0.1" d="M177.986 223.106C190.19 223.106 200.083 213.213 200.083 201.01C200.083 188.806 190.19 178.913 177.986 178.913C165.782 178.913 155.889 188.806 155.889 201.01C155.889 213.213 165.782 223.106 177.986 223.106Z" fill="black"/>
<path d="M177.986 168.195C180.967 168.195 183.384 165.778 183.384 162.797C183.384 159.816 180.967 157.399 177.986 157.399C175.005 157.399 172.588 159.816 172.588 162.797C172.588 165.778 175.005 168.195 177.986 168.195Z" fill="#407BFF"/>
<path opacity="0.6" d="M177.954 168.182C180.935 168.182 183.352 165.765 183.352 162.784C183.352 159.803 180.935 157.386 177.954 157.386C174.973 157.386 172.556 159.803 172.556 162.784C172.556 165.765 174.973 168.182 177.954 168.182Z" fill="white"/>
<path d="M177.986 167.061C177.143 167.061 176.318 166.811 175.617 166.342C174.916 165.874 174.369 165.208 174.047 164.429C173.724 163.65 173.64 162.792 173.804 161.965C173.969 161.138 174.375 160.378 174.971 159.782C175.567 159.186 176.327 158.78 177.154 158.615C177.981 158.451 178.839 158.535 179.618 158.858C180.397 159.18 181.063 159.727 181.531 160.428C182 161.129 182.25 161.954 182.25 162.797C182.248 163.927 181.798 165.011 180.999 165.81C180.2 166.609 179.116 167.059 177.986 167.061ZM177.986 158.857C177.207 158.857 176.445 159.088 175.797 159.521C175.149 159.954 174.644 160.569 174.346 161.289C174.048 162.009 173.97 162.801 174.122 163.566C174.274 164.33 174.649 165.032 175.2 165.583C175.751 166.134 176.453 166.509 177.217 166.661C177.982 166.813 178.774 166.735 179.494 166.437C180.214 166.139 180.829 165.634 181.262 164.986C181.695 164.338 181.926 163.576 181.926 162.797C181.924 161.753 181.508 160.752 180.77 160.013C180.032 159.275 179.03 158.859 177.986 158.857Z" fill="#407BFF"/>
<path d="M142.042 161.955H139.638C139.108 161.955 138.678 162.384 138.678 162.914V176.068C138.678 176.598 139.108 177.027 139.638 177.027H142.042C142.571 177.027 143.001 176.598 143.001 176.068V162.914C143.001 162.384 142.571 161.955 142.042 161.955Z" fill="#407BFF"/>
<path opacity="0.6" d="M142.042 161.955H139.638C139.108 161.955 138.678 162.384 138.678 162.914V176.068C138.678 176.598 139.108 177.027 139.638 177.027H142.042C142.571 177.027 143.001 176.598 143.001 176.068V162.914C143.001 162.384 142.571 161.955 142.042 161.955Z" fill="white"/>
<path d="M142.042 221.214H139.638C139.108 221.214 138.678 221.644 138.678 222.173V235.328C138.678 235.857 139.108 236.287 139.638 236.287H142.042C142.571 236.287 143.001 235.857 143.001 235.328V222.173C143.001 221.644 142.571 221.214 142.042 221.214Z" fill="#407BFF"/>
<path opacity="0.6" d="M142.042 221.214H139.638C139.108 221.214 138.678 221.644 138.678 222.173V235.328C138.678 235.857 139.108 236.287 139.638 236.287H142.042C142.571 236.287 143.001 235.857 143.001 235.328V222.173C143.001 221.644 142.571 221.214 142.042 221.214Z" fill="white"/>
<path d="M177.986 221.221C190.19 221.221 200.083 211.328 200.083 199.124C200.083 186.92 190.19 177.027 177.986 177.027C165.782 177.027 155.889 186.92 155.889 199.124C155.889 211.328 165.782 221.221 177.986 221.221Z" fill="#407BFF"/>
<path opacity="0.6" d="M177.986 221.221C190.19 221.221 200.083 211.328 200.083 199.124C200.083 186.92 190.19 177.027 177.986 177.027C165.782 177.027 155.889 186.92 155.889 199.124C155.889 211.328 165.782 221.221 177.986 221.221Z" fill="white"/>
<path d="M167.054 187.268L166.137 188.184L188.929 210.975L189.845 210.059L167.054 187.268Z" fill="#407BFF"/>
<path d="M188.929 187.267L166.137 210.059L167.054 210.975L189.845 188.184L188.929 187.267Z" fill="#407BFF"/>
<path opacity="0.2" d="M188.854 187.193L166.062 209.985L166.979 210.901L189.77 188.11L188.854 187.193Z" fill="black"/>
<path opacity="0.2" d="M166.984 187.198L166.067 188.115L188.858 210.906L189.775 209.989L166.984 187.198Z" fill="black"/>
<path d="M177.921 215.823C174.603 215.824 171.359 214.841 168.599 212.999C165.839 211.156 163.688 208.536 162.417 205.471C161.146 202.405 160.813 199.032 161.46 195.777C162.106 192.522 163.703 189.533 166.049 187.186C168.395 184.839 171.385 183.24 174.639 182.592C177.894 181.945 181.267 182.276 184.333 183.546C187.399 184.816 190.02 186.966 191.864 189.725C193.707 192.484 194.691 195.728 194.691 199.046C194.688 203.494 192.92 207.758 189.776 210.903C186.632 214.048 182.368 215.818 177.921 215.823ZM177.921 183.566C174.859 183.564 171.865 184.471 169.319 186.171C166.772 187.872 164.787 190.289 163.614 193.118C162.442 195.946 162.134 199.059 162.731 202.062C163.327 205.066 164.801 207.825 166.966 209.99C169.131 212.156 171.889 213.631 174.892 214.229C177.895 214.827 181.008 214.521 183.837 213.349C186.666 212.178 189.085 210.193 190.786 207.648C192.487 205.102 193.395 202.108 193.395 199.046C193.392 194.943 191.761 191.008 188.86 188.106C185.959 185.204 182.025 183.571 177.921 183.566Z" fill="#407BFF"/>
<path d="M182.879 204.01C185.619 201.269 185.619 196.826 182.879 194.085C180.138 191.344 175.694 191.344 172.954 194.085C170.213 196.826 170.213 201.269 172.954 204.01C175.694 206.75 180.138 206.75 182.879 204.01Z" fill="#407BFF"/>
<path opacity="0.2" d="M177.921 215.823C174.603 215.824 171.359 214.841 168.599 212.999C165.839 211.156 163.688 208.536 162.417 205.471C161.146 202.405 160.813 199.032 161.46 195.777C162.106 192.522 163.703 189.533 166.049 187.186C168.395 184.839 171.385 183.24 174.639 182.592C177.894 181.945 181.267 182.276 184.333 183.546C187.399 184.816 190.02 186.966 191.864 189.725C193.707 192.484 194.691 195.728 194.691 199.046C194.688 203.494 192.92 207.758 189.776 210.903C186.632 214.048 182.368 215.818 177.921 215.823ZM177.921 183.566C174.859 183.564 171.865 184.471 169.319 186.171C166.772 187.872 164.787 190.289 163.614 193.118C162.442 195.946 162.134 199.059 162.731 202.062C163.327 205.066 164.801 207.825 166.966 209.99C169.131 212.156 171.889 213.631 174.892 214.229C177.895 214.827 181.008 214.521 183.837 213.349C186.666 212.178 189.085 210.193 190.786 207.648C192.487 205.102 193.395 202.108 193.395 199.046C193.392 194.943 191.761 191.008 188.86 188.106C185.959 185.204 182.025 183.571 177.921 183.566Z" fill="black"/>
<path opacity="0.2" d="M182.879 204.01C185.619 201.269 185.619 196.826 182.879 194.085C180.138 191.344 175.694 191.344 172.954 194.085C170.213 196.826 170.213 201.269 172.954 204.01C175.694 206.75 180.138 206.75 182.879 204.01Z" fill="black"/>
<path d="M123.768 105.469C125.33 109.091 126.943 112.759 128.576 116.368C130.209 119.977 131.881 123.58 133.669 127.021C134.129 127.863 134.57 128.738 135.05 129.535L135.399 130.144L135.581 130.449C135.563 130.424 135.541 130.402 135.516 130.384C135.438 130.339 135.516 130.429 135.672 130.54C136.266 130.86 136.91 131.079 137.577 131.188C138.434 131.347 139.299 131.46 140.169 131.525C142.003 131.648 143.94 131.648 145.884 131.589L148.826 131.466L151.755 131.272L152.513 134.797C148.511 136.134 144.358 136.965 140.149 137.272C139.014 137.345 137.875 137.335 136.741 137.24C135.403 137.15 134.089 136.839 132.853 136.32C131.996 135.945 131.227 135.398 130.591 134.713C130.401 134.51 130.226 134.293 130.066 134.065L129.84 133.728L129.399 133.08C128.783 132.186 128.265 131.291 127.708 130.391C125.608 126.794 123.729 123.152 121.966 119.478C120.204 115.804 118.564 112.098 117.022 108.294L123.768 105.469Z" fill="#7F3E3B"/>
<path d="M115.162 104.976C113.691 109.279 122.336 121.934 122.336 121.934L130.617 117.346C129.211 113.398 127.551 109.545 125.647 105.812C122.725 100.336 116.776 100.252 115.162 104.976Z" fill="#407BFF"/>
<path opacity="0.5" d="M115.162 104.976C113.691 109.279 122.336 121.934 122.336 121.934L130.617 117.346C129.211 113.398 127.551 109.545 125.647 105.812C122.725 100.336 116.776 100.252 115.162 104.976Z" fill="white"/>
<path d="M115.039 105.514C116.893 104.626 119.031 105.371 121.273 108.922C123.515 112.473 125.433 118.403 125.647 120.094L122.336 121.928C122.336 121.928 114.352 110.238 115.039 105.514Z" fill="#407BFF"/>
<path opacity="0.4" d="M115.039 105.514C116.893 104.626 119.031 105.371 121.273 108.922C123.515 112.473 125.433 118.403 125.647 120.094L122.336 121.928C122.336 121.928 114.352 110.238 115.039 105.514Z" fill="white"/>
<path d="M120.755 101.684C120.755 101.684 126.924 116.193 122.472 143.208H96.7852C96.4677 139.262 98.2821 120.023 93.8303 101.438C96.6546 100.888 99.5119 100.524 102.384 100.349C106.021 100.142 109.666 100.142 113.303 100.349C115.817 100.603 118.308 101.05 120.755 101.684Z" fill="#407BFF"/>
<path opacity="0.5" d="M120.755 101.684C120.755 101.684 126.924 116.193 122.472 143.208H96.7852C96.4677 139.262 98.2821 120.023 93.8303 101.438C96.6546 100.888 99.5119 100.524 102.384 100.349C106.021 100.142 109.666 100.142 113.303 100.349C115.817 100.603 118.308 101.05 120.755 101.684Z" fill="white"/>
<path d="M99.5715 106.026C100.103 109.084 99.3966 116.394 96.7722 124.857C96.5668 117.606 95.7233 110.387 94.2515 103.285V103.246C95.9363 103.077 99.0596 103.155 99.5715 106.026Z" fill="#407BFF"/>
<path opacity="0.4" d="M99.5715 106.026C100.103 109.084 99.3966 116.394 96.7722 124.857C96.5668 117.606 95.7233 110.387 94.2515 103.285V103.246C95.9363 103.077 99.0596 103.155 99.5715 106.026Z" fill="white"/>
<path d="M87.6809 258.312L91.4912 261.721L98.7423 254.172L94.932 250.763L87.6809 258.312Z" fill="#7F3E3B"/>
<path d="M92.5408 260.353L87.9141 257.256C87.8385 257.196 87.7449 257.163 87.6484 257.163C87.552 257.163 87.4583 257.196 87.3828 257.256L83.8447 260.826C83.7756 260.905 83.7247 260.998 83.6955 261.098C83.6662 261.198 83.6594 261.304 83.6755 261.407C83.6916 261.51 83.7301 261.609 83.7885 261.695C83.8468 261.782 83.9235 261.855 84.0131 261.909C86.968 264.183 89.1 265.9 90.7848 267.792C92.7288 270.002 93.7785 270.32 98.3145 270.32C100.414 270.32 101.6 268.551 100.745 268.278C93.1888 265.887 95.2106 264.844 93.3703 261.338C93.1837 260.944 92.8979 260.604 92.5408 260.353Z" fill="#263238"/>
<path d="M98.7356 254.172L95.0031 258.066L91.1929 254.651L94.9254 250.763L98.7356 254.172Z" fill="#5E2B2B"/>
<path d="M101.354 254.282H106.155L105.831 260.016H101.03L101.354 254.282Z" fill="#5E2B2B"/>
<path d="M122.472 143.208C122.472 143.208 127.533 178.239 129.256 197.303C130.643 212.602 97.5627 258.215 97.5627 258.215L91.167 252.195C91.167 252.195 115.324 211.3 113.465 194.27C111.67 177.779 105.559 143.189 105.559 143.189L122.472 143.208Z" fill="#407BFF"/>
<path opacity="0.5" d="M122.472 143.208C122.472 143.208 127.533 178.239 129.256 197.303C130.643 212.602 97.5627 258.215 97.5627 258.215L91.167 252.195C91.167 252.195 115.324 211.3 113.465 194.27C111.67 177.779 105.559 143.189 105.559 143.189L122.472 143.208Z" fill="black"/>
<path d="M100.725 265.401H105.533L106.155 254.282H101.354L100.725 265.401Z" fill="#7F3E3B"/>
<path d="M105.786 264.851H100.388C100.298 264.847 100.21 264.879 100.143 264.94C100.077 265 100.037 265.085 100.032 265.175L99.7659 269.445C99.765 269.556 99.7861 269.667 99.828 269.77C99.8699 269.874 99.9317 269.968 100.01 270.047C100.088 270.127 100.181 270.19 100.284 270.233C100.387 270.277 100.497 270.299 100.608 270.3C102.487 270.268 103.388 270.158 105.792 270.158C107.25 270.158 113.458 270.313 115.48 270.313C117.502 270.313 117.424 268.317 116.581 268.136C112.752 267.326 108.002 266.192 106.641 265.142C106.398 264.95 106.096 264.847 105.786 264.851Z" fill="#263238"/>
<path d="M150.744 131.492L155.157 129.743L156.233 134.279C156.233 134.279 151.198 135.782 150.401 134.33L150.744 131.492Z" fill="#7F3E3B"/>
<path d="M158.896 130.656L160.192 133.138L156.233 134.266L155.157 129.743L158.896 130.656Z" fill="#7F3E3B"/>
<path d="M114.365 100.44L113.316 100.33C109.679 100.122 106.033 100.122 102.397 100.33L101.749 100.369L101.807 100.544C101.859 100.68 103.064 103.887 109.978 103.887C112.992 103.887 114.566 103.388 114.929 102.306C115.003 101.973 114.99 101.626 114.891 101.299C114.793 100.972 114.612 100.677 114.365 100.44Z" fill="#E6E6E6"/>
<path d="M103.032 88.0502C103.842 91.5623 104.755 98.0035 102.384 100.362C102.384 100.362 103.408 103.272 109.939 103.272C117.119 103.272 113.303 100.362 113.303 100.362C109.35 99.4291 109.356 96.5195 109.939 93.7915L103.032 88.0502Z" fill="#7F3E3B"/>
<path d="M105.864 90.3895L109.953 93.7721C109.805 94.4109 109.714 95.0614 109.68 95.7161C108.177 95.5022 106.065 93.8563 105.851 92.2882C105.736 91.66 105.741 91.016 105.864 90.3895Z" fill="#5E2B2B"/>
<path d="M113.296 77.598C115.48 79.0106 115.791 85.8017 112.596 86.7737C109.402 87.7457 109.162 74.9282 113.296 77.598Z" fill="#263238"/>
<path d="M101.516 84.3696C102.98 88.9056 103.602 91.6467 106.557 93.5064C107.51 94.1191 108.613 94.4594 109.746 94.4907C110.878 94.522 111.998 94.2429 112.984 93.6837C113.969 93.1245 114.783 92.3065 115.337 91.3182C115.892 90.3298 116.165 89.2087 116.128 88.0762C116.07 83.7151 113.685 77.0019 108.663 76.1595C107.581 75.9505 106.462 76.0296 105.42 76.3888C104.378 76.748 103.449 77.3747 102.725 78.2061C102.001 79.0375 101.508 80.0445 101.296 81.1262C101.084 82.2079 101.16 83.3264 101.516 84.3696Z" fill="#7F3E3B"/>
<path d="M96.2798 80.0993C97.8479 82.944 101.788 89.424 103.68 88.776C105.572 88.128 105.579 82.944 103.149 79.6586C103.149 79.6586 122.401 81.6026 122.789 70.6644C123.185 59.4734 113.912 70.3015 105.754 73.4313C96.8759 76.8657 92.5926 73.4054 96.2798 80.0993Z" fill="#263238"/>
<path d="M97.1027 76.1335C97.066 76.126 97.0331 76.1062 97.0095 76.0772C96.9858 76.0483 96.9729 76.0121 96.9729 75.9747C96.9729 75.9374 96.9858 75.9011 97.0095 75.8722C97.0331 75.8433 97.066 75.8234 97.1027 75.816C97.3943 75.7512 97.7118 75.6928 98.0552 75.628C100.637 75.2067 103.154 74.4576 105.546 73.3989C107.976 72.3103 110.523 70.444 112.778 68.7981C114.21 67.7044 115.703 66.692 117.249 65.7655C117.287 65.7464 117.331 65.7425 117.372 65.7545C117.413 65.7666 117.448 65.7936 117.469 65.8303C117.48 65.849 117.486 65.8695 117.488 65.8908C117.491 65.912 117.489 65.9334 117.483 65.9539C117.477 65.9744 117.467 65.9935 117.453 66.0101C117.44 66.0266 117.423 66.0404 117.404 66.0506C115.869 66.9707 114.387 67.9767 112.966 69.0638C110.704 70.7162 108.138 72.5889 105.676 73.697C103.263 74.7655 100.724 75.5212 98.12 75.9456C97.7766 76.0104 97.472 76.0687 97.1675 76.1335H97.1027Z" fill="#263238"/>
<path d="M100.712 89.91C101.581 90.7546 102.74 91.2346 103.952 91.2514C105.559 91.2514 105.896 89.7351 105.034 88.465C104.27 87.3245 102.52 85.9507 101.107 86.5663C99.6948 87.1819 99.6494 88.8667 100.712 89.91Z" fill="#7F3E3B"/>
<path opacity="0.2" d="M113.471 194.29C112.544 185.795 110.471 172.485 108.689 161.585C109.622 159.758 112.24 156.058 112.24 156.058C114.586 164.164 119.685 194.724 112.408 235.995C104.827 248.216 97.5691 258.235 97.5691 258.235L96.5518 242.475C103.583 229.295 114.761 206.064 113.471 194.29Z" fill="black"/>
<path d="M108.896 84.1169C108.994 84.4927 109.272 84.7649 109.544 84.7001C109.817 84.6353 109.914 84.2918 109.817 83.916C109.719 83.5401 109.441 83.268 109.169 83.3393C108.896 83.4105 108.799 83.741 108.896 84.1169Z" fill="#263238"/>
<path d="M113.173 83.1773C113.27 83.5531 113.549 83.8253 113.821 83.7605C114.093 83.6957 114.19 83.3587 114.093 82.9829C113.996 82.6071 113.724 82.3349 113.445 82.3997C113.166 82.4645 113.076 82.8015 113.173 83.1773Z" fill="#263238"/>
<path d="M111.864 83.6632C112.611 84.7144 113.493 85.6622 114.488 86.482C114.272 86.7225 114.005 86.9126 113.708 87.0391C113.41 87.1656 113.088 87.2254 112.765 87.2142L111.864 83.6632Z" fill="#630F0F"/>
<path d="M111.132 88.5816C110.343 88.5895 109.577 88.3135 108.974 87.804C108.964 87.7938 108.955 87.7816 108.949 87.7681C108.943 87.7546 108.94 87.74 108.94 87.7253C108.939 87.7106 108.942 87.6959 108.947 87.6822C108.953 87.6684 108.961 87.6559 108.971 87.6452C108.981 87.6346 108.993 87.6261 109.007 87.6202C109.02 87.6142 109.035 87.611 109.05 87.6107C109.064 87.6104 109.079 87.6131 109.093 87.6184C109.107 87.6238 109.119 87.6318 109.13 87.642C109.509 87.9503 109.953 88.1687 110.429 88.281C110.905 88.3932 111.4 88.3963 111.877 88.29C111.892 88.2866 111.907 88.2861 111.921 88.2885C111.936 88.2909 111.95 88.2961 111.963 88.3039C111.975 88.3118 111.986 88.322 111.995 88.3341C112.004 88.3461 112.01 88.3598 112.013 88.3742C112.017 88.3887 112.017 88.4037 112.015 88.4184C112.012 88.433 112.007 88.4471 111.999 88.4597C111.992 88.4724 111.981 88.4833 111.969 88.492C111.957 88.5007 111.944 88.5069 111.929 88.5103C111.667 88.5638 111.4 88.5877 111.132 88.5816Z" fill="#263238"/>
<path d="M107.199 83.0347C107.169 83.0408 107.138 83.0408 107.108 83.0347C107.08 83.0234 107.055 83.0067 107.034 82.9854C107.013 82.964 106.996 82.9387 106.985 82.9108C106.974 82.8829 106.969 82.853 106.97 82.8231C106.971 82.7931 106.978 82.7637 106.991 82.7366C107.129 82.4083 107.346 82.1187 107.621 81.8928C107.897 81.667 108.223 81.5118 108.572 81.4406C108.632 81.4347 108.692 81.4514 108.74 81.4874C108.788 81.5234 108.82 81.5761 108.832 81.635C108.836 81.6648 108.835 81.6953 108.827 81.7245C108.82 81.7538 108.807 81.7813 108.789 81.8055C108.771 81.8296 108.748 81.8499 108.722 81.8651C108.696 81.8804 108.667 81.8902 108.637 81.8942C108.363 81.956 108.108 82.0831 107.894 82.2648C107.679 82.4464 107.512 82.6772 107.406 82.9375C107.384 82.9711 107.352 82.998 107.316 83.0152C107.279 83.0323 107.239 83.0391 107.199 83.0347Z" fill="#263238"/>
<path d="M114.618 81.3176C114.584 81.3178 114.551 81.3104 114.521 81.2958C114.491 81.2812 114.464 81.2598 114.443 81.2333C114.261 81.0066 114.03 80.8237 113.768 80.6981C113.505 80.5725 113.218 80.5073 112.927 80.5076C112.867 80.5112 112.808 80.4918 112.762 80.4532C112.716 80.4146 112.687 80.3598 112.681 80.3002C112.677 80.2404 112.696 80.1814 112.735 80.1356C112.774 80.0897 112.828 80.0605 112.888 80.054C113.252 80.0466 113.613 80.1227 113.944 80.2766C114.274 80.4305 114.564 80.658 114.793 80.9417C114.831 80.9893 114.849 81.0498 114.843 81.1103C114.837 81.1708 114.807 81.2266 114.761 81.2657C114.721 81.2989 114.67 81.3172 114.618 81.3176Z" fill="#263238"/>
<path d="M97.1611 127.449C95.8704 127.014 94.6317 126.438 93.4675 125.731C93.214 125.57 92.9792 125.381 92.7676 125.168C93.0657 123.774 93.4545 122.375 93.8757 120.969C94.2969 119.562 94.8153 118.124 95.3532 116.705C95.891 115.286 96.4612 113.873 97.0574 112.473C97.3555 111.773 97.66 111.074 97.9711 110.38L98.9042 108.365L92.4242 105.047C91.9965 105.857 91.6466 106.57 91.2967 107.341C90.9468 108.112 90.6487 108.857 90.2988 109.622C89.6594 111.16 89.0762 112.717 88.5492 114.294C87.4507 117.513 86.68 120.835 86.2488 124.209V124.384V124.721C86.2325 124.954 86.2325 125.187 86.2488 125.42C86.2749 125.891 86.3576 126.356 86.495 126.807C86.7504 127.602 87.1649 128.336 87.7132 128.965C88.5197 129.843 89.4877 130.558 90.5644 131.071C92.2229 131.853 93.9766 132.415 95.7808 132.743C99.0665 133.367 102.411 133.628 105.754 133.52L106.052 129.924C103.043 129.271 100.074 128.444 97.1611 127.449Z" fill="#7F3E3B"/>
<path d="M107.49 265.68C107.053 265.67 106.619 265.613 106.194 265.511C106.175 265.505 106.157 265.494 106.142 265.479C106.128 265.464 106.117 265.447 106.11 265.427C106.107 265.407 106.109 265.385 106.117 265.366C106.125 265.347 106.138 265.33 106.155 265.317C106.311 265.207 107.672 264.28 108.255 264.514C108.321 264.539 108.38 264.581 108.425 264.635C108.47 264.69 108.501 264.755 108.514 264.825C108.542 264.929 108.544 265.039 108.519 265.144C108.494 265.249 108.444 265.347 108.371 265.427C108.118 265.616 107.805 265.706 107.49 265.68ZM106.505 265.356C107.367 265.524 108.009 265.499 108.235 265.278C108.282 265.222 108.314 265.156 108.327 265.084C108.341 265.013 108.336 264.939 108.313 264.87C108.307 264.836 108.293 264.804 108.271 264.777C108.25 264.749 108.222 264.728 108.19 264.714C107.847 264.578 106.991 265.032 106.505 265.356Z" fill="#407BFF"/>
<path d="M106.233 265.512C106.216 265.517 106.198 265.517 106.181 265.512C106.165 265.504 106.151 265.492 106.141 265.477C106.131 265.462 106.124 265.445 106.123 265.427C106.123 265.369 106.013 263.989 106.499 263.522C106.559 263.462 106.633 263.417 106.714 263.39C106.795 263.363 106.881 263.355 106.965 263.367C107.06 263.37 107.151 263.405 107.224 263.466C107.296 263.527 107.347 263.611 107.367 263.704C107.477 264.229 106.764 265.226 106.285 265.512H106.233ZM106.881 263.568C106.836 263.567 106.792 263.575 106.751 263.592C106.71 263.608 106.673 263.633 106.641 263.665C106.374 264.13 106.263 264.668 106.324 265.201C106.719 264.864 107.231 264.099 107.153 263.736C107.153 263.665 107.101 263.587 106.933 263.568H106.881Z" fill="#407BFF"/>
<path d="M95.6578 262.952C94.8009 262.82 93.9828 262.504 93.2602 262.025C93.239 262.015 93.222 261.998 93.2125 261.977C93.203 261.955 93.2015 261.931 93.2084 261.909C93.2145 261.887 93.227 261.867 93.2443 261.852C93.2616 261.837 93.2829 261.827 93.3056 261.824C93.5648 261.824 95.8393 261.656 96.2669 262.174C96.3052 262.217 96.3319 262.268 96.3444 262.324C96.3569 262.379 96.3548 262.437 96.3382 262.492C96.3183 262.581 96.2773 262.664 96.2187 262.734C96.16 262.804 96.0855 262.858 96.0013 262.894C95.8912 262.933 95.7749 262.953 95.6578 262.952ZM93.6814 262.019C94.7247 262.595 95.5477 262.848 95.917 262.667C95.9705 262.645 96.0178 262.611 96.0551 262.567C96.0923 262.523 96.1183 262.47 96.1309 262.414C96.1422 262.394 96.1482 262.372 96.1482 262.349C96.1482 262.326 96.1422 262.304 96.1309 262.284C95.8652 262.025 94.6081 261.98 93.6814 262.019Z" fill="#407BFF"/>
<path d="M93.3119 262.045C93.2936 262.044 93.2758 262.039 93.26 262.03C93.2441 262.021 93.2308 262.008 93.2211 261.993C93.2131 261.977 93.209 261.959 93.209 261.941C93.209 261.923 93.2131 261.905 93.2211 261.889C93.26 261.811 94.1219 260.055 95.2299 260.593C95.5345 260.742 95.5604 260.917 95.5345 261.04C95.4243 261.565 93.9858 262.038 93.3248 262.058L93.3119 262.045ZM94.8087 260.703C94.2126 260.703 93.7007 261.462 93.5127 261.811C94.2061 261.727 95.2688 261.293 95.3336 260.982C95.3336 260.917 95.2818 260.846 95.1392 260.775C95.0365 260.724 94.923 260.7 94.8087 260.703Z" fill="#407BFF"/>
<path d="M105.306 129.872L109.253 128.79L109.791 133.773C109.791 133.773 105.903 134.94 104.937 132.898L105.306 129.872Z" fill="#7F3E3B"/>
<path d="M105.229 129.976C106.055 129.08 106.539 127.921 106.596 126.703L107.607 127.254C107.607 127.254 107.808 129.49 107.412 130.131C107.017 130.773 105.229 129.976 105.229 129.976Z" fill="#7F3E3B"/>
<path d="M111.1 129.283L110.86 133.773H109.791L109.246 128.79L111.1 129.283Z" fill="#7F3E3B"/>
<path d="M90.7847 251.852L97.958 258.604L100.271 256.122L92.0612 248.644L90.7847 251.852Z" fill="#407BFF"/>
<path opacity="0.1" d="M90.7847 251.852L97.958 258.604L100.271 256.122L92.0612 248.644L90.7847 251.852Z" fill="black"/>
<path d="M113.342 143.208C113.342 143.208 113.795 179.917 113.018 193.674C112.169 208.734 107.892 258.636 107.892 258.636H99.0921C99.0921 258.636 99.3577 209.952 98.8264 195.042C98.2497 178.842 96.7593 143.202 96.7593 143.202L113.342 143.208Z" fill="#407BFF"/>
<path opacity="0.5" d="M113.342 143.208C113.342 143.208 113.795 179.917 113.018 193.674C112.169 208.734 107.892 258.636 107.892 258.636H99.0921C99.0921 258.636 99.3577 209.952 98.8264 195.042C98.2497 178.842 96.7593 143.202 96.7593 143.202L113.342 143.208Z" fill="black"/>
<path d="M98.7421 258.636H108.248L108.773 255.292L98.282 255.817L98.7421 258.636Z" fill="#407BFF"/>
<path opacity="0.1" d="M98.7421 258.636H108.248L108.773 255.292L98.282 255.817L98.7421 258.636Z" fill="black"/>
<path d="M93.8304 101.438C89.2944 102.086 84.6482 118.746 84.6482 118.746L95.58 122.906C95.58 122.906 98.3275 115.778 100.207 110.186C102.177 104.36 98.6839 100.725 93.8304 101.438Z" fill="#407BFF"/>
<path opacity="0.5" d="M93.8304 101.438C89.2944 102.086 84.6482 118.746 84.6482 118.746L95.58 122.906C95.58 122.906 98.3275 115.778 100.207 110.186C102.177 104.36 98.6839 100.725 93.8304 101.438Z" fill="white"/>
</svg>
