<svg width="324" height="324" viewBox="0 0 324 324" fill="none" xmlns="http://www.w3.org/2000/svg">
<path d="M162.763 51.4189C164.058 67.6035 182.756 88.6243 188.735 94.9839C188.97 95.2359 189.254 95.4368 189.57 95.5741C189.887 95.7115 190.227 95.7824 190.572 95.7824C190.917 95.7824 191.258 95.7115 191.574 95.5741C191.89 95.4368 192.174 95.2359 192.41 94.9839C198.407 88.6243 217.086 67.5939 218.381 51.4189C218.425 50.9223 218.324 50.4236 218.089 49.9838C217.854 49.5441 217.495 49.1826 217.058 48.9437L191.772 35.301C191.404 35.0994 190.991 34.9937 190.572 34.9937C190.153 34.9937 189.74 35.0994 189.373 35.301L164.087 48.9437C163.651 49.1845 163.294 49.5464 163.059 49.9856C162.824 50.4248 162.721 50.9226 162.763 51.4189V51.4189Z" fill="#407BFF"/>
<path opacity="0.3" d="M188.696 88.8527C181.08 80.2845 170.037 65.8802 167.4 54.4178C167.28 53.885 167.333 53.3279 167.553 52.8278C167.772 52.3277 168.145 51.9107 168.618 51.6378L189.315 39.7374C189.699 39.5178 190.134 39.4023 190.577 39.4023C191.019 39.4023 191.454 39.5178 191.838 39.7374L212.535 51.5997C213.021 51.8783 213.401 52.3088 213.618 52.8249C213.835 53.341 213.876 53.9141 213.735 54.4558C211.107 65.9373 200.102 80.2845 192.447 88.8908C192.21 89.1541 191.919 89.3639 191.594 89.5063C191.269 89.6487 190.918 89.7205 190.563 89.7169C190.209 89.7133 189.859 89.6344 189.537 89.4854C189.215 89.3364 188.929 89.1208 188.696 88.8527V88.8527Z" fill="#407BFF"/>
<path opacity="0.3" d="M188.696 88.8527C181.08 80.2845 170.037 65.8802 167.4 54.4178C167.28 53.885 167.333 53.3279 167.553 52.8278C167.772 52.3277 168.145 51.9107 168.618 51.6378L189.315 39.7374C189.699 39.5178 190.134 39.4023 190.577 39.4023C191.019 39.4023 191.454 39.5178 191.838 39.7374L212.535 51.5997C213.021 51.8783 213.401 52.3088 213.618 52.8249C213.835 53.341 213.876 53.9141 213.735 54.4558C211.107 65.9373 200.102 80.2845 192.447 88.8908C192.21 89.1541 191.919 89.3639 191.594 89.5063C191.269 89.6487 190.918 89.7205 190.563 89.7169C190.209 89.7133 189.859 89.6344 189.537 89.4854C189.215 89.3364 188.929 89.1208 188.696 88.8527V88.8527Z" fill="white"/>
<path d="M187.754 71.4785C187.567 71.4788 187.381 71.442 187.208 71.3701C187.034 71.2982 186.877 71.1926 186.745 71.0596L179.69 63.9765C179.438 63.7058 179.301 63.3477 179.307 62.9777C179.314 62.6078 179.464 62.2548 179.725 61.9932C179.987 61.7315 180.34 61.5816 180.71 61.5751C181.08 61.5686 181.438 61.7059 181.709 61.9582L187.754 67.994L202.035 53.7612C202.304 53.496 202.666 53.3474 203.044 53.3474C203.421 53.3474 203.784 53.496 204.053 53.7612C204.186 53.8931 204.292 54.0502 204.365 54.2235C204.437 54.3967 204.475 54.5826 204.475 54.7703C204.475 54.9581 204.437 55.1439 204.365 55.3172C204.292 55.4904 204.186 55.6475 204.053 55.7795L188.82 71.012C188.684 71.1589 188.519 71.2761 188.336 71.3563C188.152 71.4366 187.954 71.4782 187.754 71.4785Z" fill="white"/>
<path d="M247.694 109.988H115.676C109.366 109.988 104.251 115.103 104.251 121.412V294.587C104.251 300.896 109.366 306.011 115.676 306.011H247.694C254.004 306.011 259.118 300.896 259.118 294.587V121.412C259.118 115.103 254.004 109.988 247.694 109.988Z" fill="#263238"/>
<path d="M256.586 109.988H124.568C118.258 109.988 113.143 115.103 113.143 121.412V294.587C113.143 300.896 118.258 306.011 124.568 306.011H256.586C262.895 306.011 268.01 300.896 268.01 294.587V121.412C268.01 115.103 262.895 109.988 256.586 109.988Z" fill="#407BFF"/>
<path d="M140.2 306.021H127.348C126.953 306.021 126.634 306.34 126.634 306.735V308.801C126.634 309.195 126.953 309.515 127.348 309.515H140.2C140.594 309.515 140.914 309.195 140.914 308.801V306.735C140.914 306.34 140.594 306.021 140.2 306.021Z" fill="#263238"/>
<path d="M253.796 306.021H240.944C240.55 306.021 240.23 306.34 240.23 306.735V308.801C240.23 309.195 240.55 309.515 240.944 309.515H253.796C254.191 309.515 254.51 309.195 254.51 308.801V306.735C254.51 306.34 254.191 306.021 253.796 306.021Z" fill="#263238"/>
<path opacity="0.2" d="M256.586 109.988H124.568C118.258 109.988 113.143 115.103 113.143 121.412V294.587C113.143 300.896 118.258 306.011 124.568 306.011H256.586C262.895 306.011 268.01 300.896 268.01 294.587V121.412C268.01 115.103 262.895 109.988 256.586 109.988Z" fill="black"/>
<g style="mix-blend-mode:color-dodge" opacity="0.4">
<path d="M241.03 283.41H140.114C138.959 283.407 137.851 282.947 137.034 282.13C136.217 281.313 135.756 280.205 135.754 279.049V136.968C135.754 135.811 136.213 134.701 137.03 133.882C137.848 133.062 138.957 132.601 140.114 132.598H241.03C242.187 132.601 243.296 133.062 244.113 133.882C244.931 134.701 245.39 135.811 245.39 136.968V279.049C245.387 280.205 244.927 281.313 244.11 282.13C243.293 282.947 242.185 283.407 241.03 283.41V283.41ZM140.114 133.074C139.083 133.077 138.095 133.488 137.367 134.218C136.639 134.948 136.23 135.937 136.23 136.968V279.049C136.23 279.559 136.33 280.065 136.526 280.536C136.721 281.007 137.007 281.435 137.368 281.796C137.728 282.157 138.157 282.443 138.628 282.638C139.099 282.833 139.604 282.934 140.114 282.934H241.03C242.06 282.934 243.048 282.524 243.776 281.796C244.505 281.068 244.914 280.08 244.914 279.049V136.968C244.914 135.937 244.505 134.948 243.777 134.218C243.049 133.488 242.061 133.077 241.03 133.074H140.114Z" fill="#E6E6E6"/>
</g>
<path d="M243.258 279.049V136.959C243.258 135.734 242.264 134.74 241.039 134.74H140.114C138.889 134.74 137.896 135.734 137.896 136.959V279.049C137.896 280.275 138.889 281.268 140.114 281.268H241.039C242.264 281.268 243.258 280.275 243.258 279.049Z" fill="#407BFF"/>
<path opacity="0.1" d="M243.258 279.049V136.959C243.258 135.734 242.264 134.74 241.039 134.74H140.114C138.889 134.74 137.896 135.734 137.896 136.959V279.049C137.896 280.275 138.889 281.268 140.114 281.268H241.039C242.264 281.268 243.258 280.275 243.258 279.049Z" fill="white"/>
<path d="M271.333 150.401H270.381V158.437H271.333V150.401Z" fill="#407BFF"/>
<path d="M271.333 121.412H270.381V141.938H271.333V121.412Z" fill="#407BFF"/>
<path opacity="0.1" d="M190.572 243.244C208.501 243.244 223.036 228.709 223.036 210.779C223.036 192.85 208.501 178.315 190.572 178.315C172.642 178.315 158.108 192.85 158.108 210.779C158.108 228.709 172.642 243.244 190.572 243.244Z" fill="black"/>
<path d="M190.572 162.569C194.952 162.569 198.502 159.018 198.502 154.638C198.502 150.258 194.952 146.708 190.572 146.708C186.192 146.708 182.642 150.258 182.642 154.638C182.642 159.018 186.192 162.569 190.572 162.569Z" fill="#407BFF"/>
<path opacity="0.6" d="M190.525 162.55C194.905 162.55 198.455 158.999 198.455 154.619C198.455 150.239 194.905 146.689 190.525 146.689C186.145 146.689 182.594 150.239 182.594 154.619C182.594 158.999 186.145 162.55 190.525 162.55Z" fill="white"/>
<path d="M190.572 160.903C189.333 160.903 188.122 160.535 187.092 159.847C186.062 159.158 185.259 158.18 184.784 157.035C184.31 155.891 184.186 154.631 184.428 153.416C184.67 152.201 185.266 151.085 186.142 150.209C187.019 149.332 188.135 148.736 189.35 148.494C190.565 148.252 191.825 148.377 192.969 148.851C194.114 149.325 195.092 150.128 195.781 151.158C196.469 152.188 196.836 153.399 196.836 154.638C196.834 156.299 196.173 157.891 194.999 159.065C193.825 160.239 192.233 160.9 190.572 160.903V160.903ZM190.572 148.85C189.427 148.85 188.308 149.189 187.356 149.825C186.404 150.461 185.662 151.365 185.224 152.423C184.786 153.481 184.672 154.645 184.895 155.767C185.118 156.89 185.669 157.922 186.479 158.731C187.289 159.541 188.32 160.092 189.443 160.315C190.566 160.539 191.729 160.424 192.787 159.986C193.845 159.548 194.749 158.806 195.385 157.854C196.021 156.902 196.36 155.783 196.36 154.638C196.358 153.104 195.747 151.633 194.662 150.548C193.577 149.463 192.106 148.852 190.572 148.85V148.85Z" fill="#407BFF"/>
<path d="M137.763 153.4H134.231C133.453 153.4 132.822 154.031 132.822 154.809V174.136C132.822 174.914 133.453 175.545 134.231 175.545H137.763C138.541 175.545 139.172 174.914 139.172 174.136V154.809C139.172 154.031 138.541 153.4 137.763 153.4Z" fill="#407BFF"/>
<path opacity="0.6" d="M137.763 153.4H134.231C133.453 153.4 132.822 154.031 132.822 154.809V174.136C132.822 174.914 133.453 175.545 134.231 175.545H137.763C138.541 175.545 139.172 174.914 139.172 174.136V154.809C139.172 154.031 138.541 153.4 137.763 153.4Z" fill="white"/>
<path d="M137.763 240.464H134.231C133.453 240.464 132.822 241.094 132.822 241.873V261.199C132.822 261.977 133.453 262.608 134.231 262.608H137.763C138.541 262.608 139.172 261.977 139.172 261.199V241.873C139.172 241.094 138.541 240.464 137.763 240.464Z" fill="#407BFF"/>
<path opacity="0.6" d="M137.763 240.464H134.231C133.453 240.464 132.822 241.094 132.822 241.873V261.199C132.822 261.977 133.453 262.608 134.231 262.608H137.763C138.541 262.608 139.172 261.977 139.172 261.199V241.873C139.172 241.094 138.541 240.464 137.763 240.464Z" fill="white"/>
<path d="M190.572 240.473C208.501 240.473 223.036 225.938 223.036 208.009C223.036 190.079 208.501 175.545 190.572 175.545C172.642 175.545 158.108 190.079 158.108 208.009C158.108 225.938 172.642 240.473 190.572 240.473Z" fill="#407BFF"/>
<path opacity="0.6" d="M190.572 240.473C208.501 240.473 223.036 225.938 223.036 208.009C223.036 190.079 208.501 175.545 190.572 175.545C172.642 175.545 158.108 190.079 158.108 208.009C158.108 225.938 172.642 240.473 190.572 240.473Z" fill="white"/>
<path d="M174.511 190.59L173.164 191.936L206.649 225.42L207.995 224.074L174.511 190.59Z" fill="#407BFF"/>
<path d="M206.649 190.59L173.164 224.074L174.511 225.421L207.995 191.936L206.649 190.59Z" fill="#407BFF"/>
<path opacity="0.2" d="M206.539 190.481L173.054 223.965L174.401 225.312L207.885 191.827L206.539 190.481Z" fill="black"/>
<path opacity="0.2" d="M174.407 190.488L173.061 191.834L206.545 225.319L207.892 223.972L174.407 190.488Z" fill="black"/>
<path d="M190.477 232.543C185.601 232.545 180.835 231.101 176.78 228.393C172.726 225.686 169.565 221.837 167.698 217.334C165.831 212.83 165.342 207.874 166.292 203.092C167.242 198.31 169.588 193.917 173.035 190.469C176.482 187.021 180.874 184.673 185.655 183.721C190.437 182.769 195.393 183.257 199.897 185.122C204.402 186.987 208.252 190.146 210.961 194.2C213.669 198.254 215.115 203.019 215.115 207.895C215.11 214.429 212.513 220.694 207.894 225.315C203.275 229.936 197.011 232.535 190.477 232.543V232.543ZM190.477 185.151C185.978 185.149 181.58 186.481 177.838 188.979C174.097 191.477 171.18 195.029 169.457 199.184C167.734 203.34 167.283 207.913 168.159 212.326C169.036 216.739 171.201 220.792 174.381 223.974C177.562 227.156 181.614 229.323 186.027 230.201C190.439 231.079 195.012 230.63 199.169 228.908C203.325 227.187 206.878 224.272 209.378 220.532C211.877 216.791 213.211 212.393 213.211 207.895C213.206 201.866 210.81 196.085 206.547 191.821C202.285 187.557 196.506 185.158 190.477 185.151V185.151Z" fill="#407BFF"/>
<path d="M197.76 215.187C201.787 211.16 201.787 204.632 197.76 200.606C193.734 196.579 187.205 196.579 183.179 200.606C179.152 204.632 179.152 211.16 183.179 215.187C187.205 219.213 193.734 219.213 197.76 215.187Z" fill="#407BFF"/>
<path opacity="0.2" d="M190.477 232.543C185.601 232.545 180.835 231.101 176.78 228.393C172.726 225.686 169.565 221.837 167.698 217.334C165.831 212.83 165.342 207.874 166.292 203.092C167.242 198.31 169.588 193.917 173.035 190.469C176.482 187.021 180.874 184.673 185.655 183.721C190.437 182.769 195.393 183.257 199.897 185.122C204.402 186.987 208.252 190.146 210.961 194.2C213.669 198.254 215.115 203.019 215.115 207.895C215.11 214.429 212.513 220.694 207.894 225.315C203.275 229.936 197.011 232.535 190.477 232.543V232.543ZM190.477 185.151C185.978 185.149 181.58 186.481 177.838 188.979C174.097 191.477 171.18 195.029 169.457 199.184C167.734 203.34 167.283 207.913 168.159 212.326C169.036 216.739 171.201 220.792 174.381 223.974C177.562 227.156 181.614 229.323 186.027 230.201C190.439 231.079 195.012 230.63 199.169 228.908C203.325 227.187 206.878 224.272 209.378 220.532C211.877 216.791 213.211 212.393 213.211 207.895C213.206 201.866 210.81 196.085 206.547 191.821C202.285 187.557 196.506 185.158 190.477 185.151V185.151Z" fill="black"/>
<path opacity="0.2" d="M197.76 215.187C201.787 211.16 201.787 204.632 197.76 200.606C193.734 196.579 187.205 196.579 183.179 200.606C179.152 204.632 179.152 211.16 183.179 215.187C187.205 219.213 193.734 219.213 197.76 215.187Z" fill="black"/>
<path d="M110.916 70.4119C113.21 75.7337 115.58 81.1222 117.98 86.425C120.379 91.7279 122.835 97.0212 125.463 102.076C126.139 103.314 126.786 104.599 127.49 105.77L128.004 106.665L128.271 107.113C128.244 107.076 128.212 107.044 128.176 107.017C128.062 106.951 128.176 107.084 128.404 107.246C129.278 107.716 130.224 108.038 131.203 108.198C132.463 108.433 133.734 108.598 135.011 108.693C137.706 108.874 140.552 108.874 143.408 108.788L147.731 108.607L152.034 108.322L153.148 113.501C147.268 115.465 141.166 116.686 134.983 117.138C133.315 117.245 131.641 117.229 129.975 117.09C128.01 116.957 126.08 116.5 124.263 115.738C123.005 115.188 121.874 114.384 120.94 113.377C120.661 113.079 120.403 112.76 120.169 112.425L119.836 111.93L119.189 110.978C118.284 109.664 117.523 108.35 116.704 107.027C113.619 101.743 110.858 96.3928 108.269 90.9948C105.679 85.5968 103.271 80.1511 101.005 74.5627L110.916 70.4119Z" fill="#7F3E3B"/>
<path d="M98.2724 69.6886C96.1113 76.0101 108.811 94.6033 108.811 94.6033L120.978 87.8629C118.912 82.0626 116.473 76.402 113.676 70.9167C109.383 62.8721 100.643 62.7483 98.2724 69.6886Z" fill="#407BFF"/>
<path opacity="0.5" d="M98.2724 69.6886C96.1113 76.0101 108.811 94.6033 108.811 94.6033L120.978 87.8629C118.912 82.0626 116.473 76.402 113.676 70.9167C109.383 62.8721 100.643 62.7483 98.2724 69.6886Z" fill="white"/>
<path d="M98.0916 70.4788C100.814 69.1745 103.956 70.2693 107.25 75.4864C110.544 80.7036 113.362 89.4147 113.676 91.8995L108.811 94.5937C108.811 94.5937 97.0825 77.4191 98.0916 70.4788Z" fill="#407BFF"/>
<path opacity="0.4" d="M98.0916 70.4788C100.814 69.1745 103.956 70.2693 107.25 75.4864C110.544 80.7036 113.362 89.4147 113.676 91.8995L108.811 94.5937C108.811 94.5937 97.0825 77.4191 98.0916 70.4788Z" fill="white"/>
<path d="M106.489 64.8524C106.489 64.8524 115.552 86.1684 109.012 125.859H71.2731C70.8067 120.061 73.4723 91.7949 66.9319 64.4906C71.0812 63.6825 75.2792 63.1482 79.4987 62.8912C84.8416 62.5864 90.1975 62.5864 95.5404 62.8912C99.2346 63.2647 102.895 63.9204 106.489 64.8524Z" fill="#407BFF"/>
<path opacity="0.5" d="M106.489 64.8524C106.489 64.8524 115.552 86.1684 109.012 125.859H71.2731C70.8067 120.061 73.4723 91.7949 66.9319 64.4906C71.0812 63.6825 75.2792 63.1482 79.4987 62.8912C84.8416 62.5864 90.1975 62.5864 95.5404 62.8912C99.2346 63.2647 102.895 63.9204 106.489 64.8524Z" fill="white"/>
<path d="M75.3667 71.231C76.1474 75.7246 75.1097 86.4635 71.2539 98.897C70.9521 88.2444 69.7129 77.6391 67.5505 67.2039V67.1468C70.0258 66.8992 74.6146 67.0135 75.3667 71.231Z" fill="#407BFF"/>
<path opacity="0.4" d="M75.3667 71.231C76.1474 75.7246 75.1097 86.4635 71.2539 98.897C70.9521 88.2444 69.7129 77.6391 67.5505 67.2039V67.1468C70.0258 66.8992 74.6146 67.0135 75.3667 71.231Z" fill="white"/>
<path d="M57.8972 294.968L63.4952 299.976L74.1484 288.884L68.5505 283.877L57.8972 294.968Z" fill="#7F3E3B"/>
<path d="M65.0373 297.967L58.2398 293.416C58.1287 293.328 57.9912 293.28 57.8495 293.28C57.7077 293.28 57.5702 293.328 57.4591 293.416L52.261 298.662C52.1596 298.777 52.0848 298.913 52.0418 299.06C51.9989 299.208 51.9888 299.363 52.0125 299.515C52.0361 299.666 52.0928 299.811 52.1785 299.938C52.2642 300.066 52.3769 300.173 52.5086 300.252C56.8498 303.593 59.982 306.116 62.4573 308.896C65.3134 312.142 66.8557 312.609 73.5199 312.609C76.6045 312.609 78.3467 310.01 77.09 309.61C65.9893 306.097 68.9597 304.564 66.2559 299.414C65.9818 298.834 65.5619 298.335 65.0373 297.967V297.967Z" fill="#263238"/>
<path d="M74.1385 288.884L68.6548 294.606L63.0569 289.589L68.5406 283.877L74.1385 288.884Z" fill="#5E2B2B"/>
<path d="M77.9848 289.046H85.0394L84.5633 297.471H77.5088L77.9848 289.046Z" fill="#5E2B2B"/>
<path d="M109.011 125.858C109.011 125.858 116.447 177.325 118.979 205.334C121.017 227.811 72.4153 294.825 72.4153 294.825L63.0188 285.981C63.0188 285.981 98.5105 225.898 95.7782 200.878C93.1411 176.649 84.1634 125.83 84.1634 125.83L109.011 125.858Z" fill="#407BFF"/>
<path opacity="0.5" d="M109.011 125.858C109.011 125.858 116.447 177.325 118.979 205.334C121.017 227.811 72.4153 294.825 72.4153 294.825L63.0188 285.981C63.0188 285.981 98.5105 225.898 95.7782 200.878C93.1411 176.649 84.1634 125.83 84.1634 125.83L109.011 125.858Z" fill="black"/>
<path d="M77.0615 305.383H84.1256L85.0396 289.046H77.985L77.0615 305.383Z" fill="#7F3E3B"/>
<path d="M84.4967 304.574H76.5663C76.434 304.568 76.305 304.615 76.2071 304.704C76.1091 304.794 76.0501 304.917 76.0427 305.05L75.6524 311.324C75.6511 311.487 75.6821 311.65 75.7437 311.802C75.8052 311.953 75.896 312.092 76.0109 312.208C76.1258 312.325 76.2626 312.418 76.4135 312.482C76.5643 312.545 76.7262 312.579 76.89 312.58C79.6509 312.533 80.9742 312.371 84.5063 312.371C86.6483 312.371 95.7688 312.599 98.7391 312.599C101.709 312.599 101.595 309.667 100.358 309.4C94.7311 308.21 87.7527 306.544 85.7534 305.002C85.3959 304.72 84.9523 304.568 84.4967 304.574V304.574Z" fill="#263238"/>
<path d="M150.549 108.646L157.032 106.075L158.612 112.739C158.612 112.739 151.215 114.948 150.044 112.816L150.549 108.646Z" fill="#7F3E3B"/>
<path d="M162.525 107.418L164.429 111.064L158.612 112.72L157.032 106.075L162.525 107.418Z" fill="#7F3E3B"/>
<path d="M97.1015 63.0243L95.5592 62.8624C90.2163 62.5576 84.8604 62.5576 79.5175 62.8624L78.5654 62.9195L78.6511 63.1766C78.7273 63.3765 80.4981 68.0891 90.6562 68.0891C95.0832 68.0891 97.3966 67.356 97.9297 65.7661C98.0386 65.2764 98.0196 64.767 97.8745 64.2868C97.7294 63.8066 97.4632 63.3718 97.1015 63.0243V63.0243Z" fill="#E6E6E6"/>
<path d="M80.4506 44.8213C81.6406 49.9813 82.983 59.4445 79.4985 62.9099C79.4985 62.9099 81.0027 67.1845 90.5992 67.1845C101.148 67.1845 95.5403 62.9099 95.5403 62.9099C89.7329 61.539 89.7424 57.2643 90.5992 53.2563L80.4506 44.8213Z" fill="#7F3E3B"/>
<path d="M84.6109 48.2583L90.6183 53.2279C90.402 54.1665 90.2682 55.1221 90.2184 56.084C88.0097 55.7698 84.9061 53.3517 84.5919 51.0477C84.4238 50.1249 84.4303 49.1788 84.6109 48.2583Z" fill="#5E2B2B"/>
<path d="M95.531 29.4652C98.7393 31.5407 99.1963 41.5179 94.5028 42.946C89.8093 44.374 89.457 25.5429 95.531 29.4652Z" fill="#263238"/>
<path d="M78.2229 39.4139C80.3745 46.0781 81.2885 50.1052 85.6297 52.8375C87.0302 53.7376 88.6502 54.2377 90.3143 54.2836C91.9785 54.3295 93.6235 53.9195 95.0715 53.098C96.5195 52.2765 97.7153 51.0747 98.5295 49.6226C99.3438 48.1705 99.7455 46.5234 99.6912 44.8595C99.6056 38.4523 96.1021 28.5893 88.7238 27.3516C87.1337 27.0447 85.4908 27.1609 83.9596 27.6886C82.4285 28.2163 81.0628 29.137 79.9994 30.3585C78.9361 31.58 78.2122 33.0594 77.9005 34.6487C77.5887 36.2379 77.6999 37.8811 78.2229 39.4139V39.4139Z" fill="#7F3E3B"/>
<path d="M70.5306 33.14C72.8345 37.3194 78.6228 46.8397 81.4028 45.8877C84.1827 44.9357 84.1922 37.3194 80.6221 32.4926C80.6221 32.4926 108.907 35.3487 109.478 19.2784C110.059 2.83684 96.4353 18.7453 84.4493 23.3436C71.4064 28.3894 65.1135 23.3055 70.5306 33.14Z" fill="#263238"/>
<path d="M71.7395 27.3136C71.6857 27.3027 71.6373 27.2735 71.6025 27.231C71.5678 27.1885 71.5488 27.1352 71.5488 27.0803C71.5488 27.0254 71.5678 26.9722 71.6025 26.9297C71.6373 26.8872 71.6857 26.858 71.7395 26.8471C72.1679 26.7519 72.6344 26.6662 73.139 26.571C76.9318 25.9519 80.6302 24.8514 84.1444 23.296C87.7146 21.6966 91.456 18.9547 94.7691 16.5366C96.8738 14.9298 99.0669 13.4423 101.338 12.0811C101.394 12.0531 101.459 12.0473 101.519 12.065C101.579 12.0827 101.63 12.1224 101.662 12.1763C101.677 12.2038 101.686 12.234 101.69 12.2651C101.693 12.2963 101.69 12.3278 101.681 12.3579C101.673 12.388 101.658 12.416 101.638 12.4404C101.619 12.4648 101.594 12.485 101.567 12.5C99.3113 13.8518 97.1341 15.3298 95.0452 16.9269C91.7226 19.3546 87.9526 22.106 84.3349 23.734C80.7906 25.3038 77.0601 26.414 73.2342 27.0375C72.7296 27.1327 72.2821 27.2184 71.8347 27.3136H71.7395Z" fill="#263238"/>
<path d="M77.0425 47.5539C78.3192 48.7947 80.0225 49.4999 81.8027 49.5246C84.1637 49.5246 84.6588 47.2968 83.3926 45.4308C82.2692 43.7553 79.6987 41.737 77.6232 42.6414C75.5478 43.5458 75.4812 46.0211 77.0425 47.5539Z" fill="#7F3E3B"/>
<path opacity="0.2" d="M95.7877 200.907C94.4263 188.426 91.3798 168.871 88.7617 152.858C90.1326 150.173 93.9789 144.737 93.9789 144.737C97.4252 156.647 104.918 201.545 94.2264 262.18C83.0876 280.135 72.4249 294.853 72.4249 294.853L70.9302 271.7C81.2597 252.336 97.6823 218.205 95.7877 200.907Z" fill="black"/>
<path d="M89.0667 39.0427C89.2095 39.5949 89.6189 39.9947 90.0187 39.8995C90.4186 39.8043 90.5614 39.2997 90.4186 38.7476C90.2758 38.1954 89.8664 37.7955 89.4666 37.9003C89.0667 38.005 88.9239 38.4905 89.0667 39.0427Z" fill="#263238"/>
<path d="M95.3498 37.6621C95.4926 38.2143 95.902 38.6141 96.3019 38.5189C96.7017 38.4237 96.8445 37.9287 96.7017 37.3765C96.5589 36.8243 96.1591 36.4245 95.7497 36.5197C95.3403 36.6149 95.207 37.1099 95.3498 37.6621Z" fill="#263238"/>
<path d="M93.4265 38.376C94.5236 39.9204 95.8201 41.3129 97.2822 42.5173C96.9642 42.8706 96.5727 43.15 96.1352 43.3358C95.6978 43.5217 95.2249 43.6095 94.7498 43.5931L93.4265 38.376Z" fill="#630F0F"/>
<path d="M92.3514 45.6022C91.1918 45.6138 90.0667 45.2083 89.1811 44.4598C89.1655 44.4448 89.1529 44.4268 89.1442 44.407C89.1356 44.3871 89.1308 44.3658 89.1304 44.3441C89.13 44.3225 89.1338 44.3009 89.1417 44.2807C89.1495 44.2606 89.1613 44.2421 89.1763 44.2265C89.1913 44.2109 89.2093 44.1984 89.2291 44.1897C89.249 44.181 89.2703 44.1763 89.292 44.1758C89.3136 44.1754 89.3352 44.1792 89.3553 44.1871C89.3755 44.195 89.394 44.2067 89.4096 44.2217C89.967 44.6747 90.6197 44.9956 91.3188 45.1605C92.0178 45.3254 92.7451 45.3299 93.4462 45.1738C93.4674 45.1688 93.4895 45.168 93.511 45.1715C93.5326 45.175 93.5532 45.1828 93.5718 45.1943C93.5904 45.2058 93.6065 45.2208 93.6192 45.2385C93.632 45.2562 93.6411 45.2763 93.6461 45.2975C93.6511 45.3188 93.6519 45.3408 93.6484 45.3624C93.6449 45.3839 93.6371 45.4046 93.6256 45.4231C93.6141 45.4417 93.5991 45.4578 93.5814 45.4706C93.5637 45.4833 93.5436 45.4925 93.5224 45.4975C93.1372 45.576 92.7444 45.6111 92.3514 45.6022Z" fill="#263238"/>
<path d="M86.5723 37.4528C86.5283 37.4618 86.483 37.4618 86.439 37.4528C86.3982 37.4363 86.3612 37.4116 86.3303 37.3803C86.2993 37.349 86.2751 37.3117 86.2591 37.2708C86.243 37.2298 86.2355 37.1859 86.237 37.1419C86.2385 37.098 86.2489 37.0547 86.2677 37.0149C86.4708 36.5325 86.7886 36.107 87.1934 35.7752C87.5982 35.4434 88.0778 35.2154 88.5906 35.1108C88.6783 35.1022 88.7661 35.1267 88.8366 35.1796C88.9071 35.2325 88.9552 35.3098 88.9714 35.3964C88.9781 35.4403 88.9761 35.485 88.9653 35.528C88.9545 35.571 88.9352 35.6114 88.9086 35.6469C88.882 35.6823 88.8486 35.7121 88.8104 35.7345C88.7721 35.7569 88.7298 35.7714 88.6858 35.7773C88.2831 35.868 87.9083 36.0548 87.5933 36.3217C87.2784 36.5886 87.0326 36.9277 86.877 37.31C86.8442 37.3595 86.7984 37.3989 86.7447 37.4241C86.6909 37.4493 86.6313 37.4592 86.5723 37.4528Z" fill="#263238"/>
<path d="M97.473 34.9297C97.4235 34.9301 97.3746 34.9191 97.3301 34.8977C97.2855 34.8762 97.2465 34.8448 97.2159 34.8059C96.948 34.4728 96.6088 34.2041 96.2232 34.0195C95.8377 33.835 95.4156 33.7393 94.9882 33.7397C94.9003 33.7451 94.8137 33.7165 94.7463 33.6597C94.6789 33.603 94.636 33.5225 94.6264 33.435C94.621 33.3471 94.6496 33.2605 94.7063 33.1931C94.763 33.1258 94.8435 33.0828 94.931 33.0732C95.4662 33.0624 95.9968 33.1743 96.482 33.4004C96.9672 33.6265 97.3941 33.9607 97.73 34.3775C97.7857 34.4474 97.8119 34.5363 97.803 34.6252C97.7941 34.7141 97.7508 34.7961 97.6824 34.8535C97.6234 34.9022 97.5495 34.9291 97.473 34.9297V34.9297Z" fill="#263238"/>
<path d="M71.8253 102.705C69.929 102.066 68.1091 101.22 66.3987 100.182C66.0262 99.945 65.6814 99.6672 65.3705 99.3538C65.8084 97.3069 66.3796 95.2505 66.9985 93.1846C67.6173 91.1187 68.3789 89.0052 69.1691 86.9203C69.9593 84.8353 70.7971 82.7599 71.6729 80.7035C72.1109 79.6753 72.5583 78.6471 73.0153 77.6284L74.3862 74.6676L64.8659 69.7932C64.2376 70.9833 63.7235 72.0305 63.2094 73.1634C62.6953 74.2963 62.2574 75.3912 61.7433 76.5146C60.8039 78.774 59.9471 81.0621 59.1728 83.3787C57.559 88.108 56.4267 92.9881 55.7931 97.9448V98.2018V98.6969C55.7692 99.0392 55.7692 99.3828 55.7931 99.7251C55.8315 100.416 55.9529 101.1 56.1548 101.762C56.5301 102.93 57.1391 104.008 57.9446 104.933C59.1295 106.223 60.5517 107.274 62.1336 108.027C64.5702 109.176 67.1467 110.002 69.7974 110.483C74.6247 111.4 79.5382 111.783 84.4492 111.625L84.8871 106.342C80.4667 105.382 76.1055 104.168 71.8253 102.705V102.705Z" fill="#7F3E3B"/>
<path d="M87.0006 305.792C86.3589 305.777 85.7206 305.694 85.0965 305.545C85.0679 305.535 85.0418 305.518 85.0204 305.497C84.9989 305.476 84.9826 305.45 84.9728 305.421C84.9683 305.39 84.9721 305.359 84.9839 305.331C84.9956 305.302 85.0148 305.278 85.0394 305.259C85.2679 305.097 87.2671 303.736 88.124 304.079C88.2212 304.116 88.3073 304.177 88.3739 304.257C88.4406 304.337 88.4857 304.433 88.5048 304.536C88.5466 304.689 88.5493 304.85 88.5127 305.005C88.4761 305.159 88.4014 305.303 88.2954 305.421C87.9234 305.698 87.463 305.83 87.0006 305.792ZM85.5535 305.316C86.8197 305.564 87.7622 305.526 88.0954 305.202C88.1639 305.12 88.2103 305.022 88.2303 304.917C88.2503 304.812 88.2432 304.704 88.2097 304.602C88.201 304.552 88.1799 304.505 88.1483 304.465C88.1167 304.425 88.0756 304.394 88.0288 304.374C87.5242 304.174 86.2675 304.84 85.5535 305.316V305.316Z" fill="#407BFF"/>
<path d="M85.1534 305.545C85.1288 305.553 85.1019 305.553 85.0773 305.545C85.0535 305.533 85.0331 305.516 85.0181 305.494C85.003 305.472 84.9939 305.447 84.9916 305.421C84.9916 305.335 84.8297 303.307 85.5438 302.622C85.6329 302.534 85.7411 302.468 85.8599 302.428C85.9788 302.388 86.1051 302.377 86.2292 302.393C86.3686 302.399 86.5022 302.45 86.6091 302.54C86.716 302.63 86.79 302.752 86.8195 302.889C86.9813 303.66 85.9341 305.126 85.2296 305.545H85.1534ZM86.1055 302.689C86.0402 302.687 85.9753 302.7 85.9148 302.724C85.8542 302.749 85.7993 302.785 85.7532 302.831C85.3611 303.515 85.1977 304.305 85.2867 305.088C85.8674 304.593 86.6195 303.469 86.5053 302.936C86.5053 302.831 86.4291 302.717 86.1816 302.689H86.1055Z" fill="#407BFF"/>
<path d="M69.6167 301.784C68.3577 301.591 67.1558 301.127 66.0942 300.423C66.0629 300.408 66.038 300.383 66.024 300.351C66.01 300.32 66.0079 300.284 66.018 300.252C66.0271 300.219 66.0454 300.19 66.0708 300.168C66.0962 300.146 66.1275 300.132 66.1608 300.128C66.5416 300.128 69.8833 299.88 70.5116 300.642C70.5678 300.704 70.607 300.78 70.6254 300.861C70.6437 300.943 70.6406 301.028 70.6163 301.108C70.5871 301.239 70.5268 301.361 70.4407 301.464C70.3545 301.566 70.245 301.647 70.1213 301.699C69.9596 301.757 69.7887 301.786 69.6167 301.784V301.784ZM66.713 300.413C68.2458 301.261 69.4549 301.632 69.9975 301.365C70.076 301.334 70.1456 301.283 70.2003 301.218C70.255 301.154 70.2933 301.077 70.3117 300.994C70.3284 300.965 70.3372 300.932 70.3372 300.899C70.3372 300.865 70.3284 300.833 70.3117 300.804C69.9214 300.423 68.0744 300.356 66.713 300.413Z" fill="#407BFF"/>
<path d="M66.1702 300.452C66.1434 300.451 66.1172 300.444 66.0939 300.43C66.0707 300.417 66.0511 300.398 66.0369 300.376C66.0252 300.352 66.019 300.326 66.019 300.299C66.019 300.273 66.0252 300.247 66.0369 300.223C66.094 300.109 67.3602 297.529 68.9882 298.319C69.4357 298.538 69.4737 298.795 69.4356 298.976C69.2738 299.747 67.1603 300.442 66.1892 300.471L66.1702 300.452ZM68.3694 298.481C67.4935 298.481 66.7414 299.595 66.4653 300.109C67.484 299.985 69.0453 299.347 69.1405 298.89C69.1405 298.795 69.0644 298.69 68.8549 298.586C68.7039 298.512 68.5373 298.476 68.3694 298.481V298.481Z" fill="#407BFF"/>
<path d="M83.7922 106.265L89.59 104.676L90.3802 111.997C90.3802 111.997 84.668 113.71 83.2495 110.711L83.7922 106.265Z" fill="#7F3E3B"/>
<path d="M83.678 106.418C84.892 105.101 85.6032 103.399 85.6868 101.61L87.1719 102.419C87.1719 102.419 87.4671 105.704 86.8863 106.646C86.3056 107.589 83.678 106.418 83.678 106.418Z" fill="#7F3E3B"/>
<path d="M92.3036 105.399L91.9514 111.997H90.3805L89.5808 104.676L92.3036 105.399Z" fill="#7F3E3B"/>
<path d="M62.4573 285.476L72.9963 295.396L76.395 291.75L64.3328 280.764L62.4573 285.476Z" fill="#407BFF"/>
<path opacity="0.1" d="M62.4573 285.476L72.9963 295.396L76.395 291.75L64.3328 280.764L62.4573 285.476Z" fill="black"/>
<path d="M95.5973 125.858C95.5973 125.858 96.2638 179.791 95.1213 200.003C93.8742 222.128 87.5908 295.444 87.5908 295.444H74.6622C74.6622 295.444 75.0525 223.918 74.2718 202.011C73.4245 178.211 71.2349 125.849 71.2349 125.849L95.5973 125.858Z" fill="#407BFF"/>
<path opacity="0.5" d="M95.5973 125.858C95.5973 125.858 96.2638 179.791 95.1213 200.003C93.8742 222.128 87.5908 295.444 87.5908 295.444H74.6622C74.6622 295.444 75.0525 223.918 74.2718 202.011C73.4245 178.211 71.2349 125.849 71.2349 125.849L95.5973 125.858Z" fill="black"/>
<path d="M74.1481 295.444H88.1144L88.8856 290.531L73.4722 291.302L74.1481 295.444Z" fill="#407BFF"/>
<path opacity="0.1" d="M74.1481 295.444H88.1144L88.8856 290.531L73.4722 291.302L74.1481 295.444Z" fill="black"/>
<path d="M66.9319 64.4904C60.2677 65.4425 53.4417 89.9192 53.4417 89.9192L69.5024 96.0312C69.5024 96.0312 73.539 85.5589 76.2999 77.3428C79.1941 68.7841 74.0627 63.4432 66.9319 64.4904Z" fill="#407BFF"/>
<path opacity="0.5" d="M66.9319 64.4904C60.2677 65.4425 53.4417 89.9192 53.4417 89.9192L69.5024 96.0312C69.5024 96.0312 73.539 85.5589 76.2999 77.3428C79.1941 68.7841 74.0627 63.4432 66.9319 64.4904Z" fill="white"/>
</svg>
